<svg xmlns:xlink="http://www.w3.org/1999/xlink" height="400" width="600" xmlns="http://www.w3.org/2000/svg" version="1.1"><desc>Created with Highstock 1.3.5</desc><defs><clipPath id="highcharts-16"><rect height="194" width="522" y="0" x="0" fill="none"></rect></clipPath><linearGradient id="highcharts-17" y2="1" x2="0" y1="0" x1="0"><stop stop-opacity="1" stop-color="#EEE" offset="0"></stop><stop stop-opacity="1" stop-color="#FFF" offset="1"></stop></linearGradient><linearGradient id="highcharts-18" y2="1" x2="0" y1="0" x1="0"><stop stop-opacity="1" stop-color="#FFF" offset="0"></stop><stop stop-opacity="1" stop-color="#CCC" offset="1"></stop></linearGradient><linearGradient id="highcharts-19" y2="1" x2="0" y1="0" x1="0"><stop stop-opacity="1" stop-color="#FEFEFE" offset="0"></stop><stop stop-opacity="1" stop-color="#F6F6F6" offset="1"></stop></linearGradient><linearGradient id="highcharts-20" y2="1" x2="0" y1="0" x1="0"><stop stop-opacity="1" stop-color="#9BD" offset="0"></stop><stop stop-opacity="1" stop-color="#CDF" offset="1"></stop></linearGradient></defs><rect height="400" width="600" y="0" x="0" fill="#FFFFFF" ry="0" rx="0"></rect><g transform="translate(34,337)" class="highcharts-scrollbar"><rect ry="0" rx="0" stroke-width="1" stroke="#CCC" height="14" width="522" y="-0.5" x="0" fill="url(#highcharts-17)"></rect><rect ry="2" rx="2" stroke-width="1" stroke="#666" height="14" width="10" y="-0.5" x="497.5" fill="url(#highcharts-18)"></rect><path d="M 499 3.5 L 499 9.333333333333334 M 502 3.5 L 502 9.333333333333334 M 505 3.5 L 505 9.333333333333334" visibility="hidden" stroke-width="1" stroke="#666" fill="none"></path><g><rect stroke-width="1" stroke="#666" height="14" width="14" y="-0.5" x="-0.5" fill="url(#highcharts-18)" ry="2" rx="2"></rect><path d="M 8 4 L 8 10 5 7" fill="#666"></path></g><g transform="translate(508,0)"><rect stroke-width="1" stroke="#666" height="14" width="14" y="-0.5" x="-0.5" fill="url(#highcharts-18)" ry="2" rx="2"></rect><path d="M 6 4 L 6 10 9 7" fill="#666"></path></g></g><text style="font-family:'lucida grande', 'lucida sans unicode', verdana, arial, helvetica, sans-serif;font-size:12px;color:#666;fill:#666;" y="69" x="34"><tspan x="34">Zoom</tspan></text><g transform="translate(331,54)" class="highcharts-input-group"><g transform="translate(0,0)" style="fill:#666;"><text  style="font-family:'lucida grande', 'lucida sans unicode', verdana, arial, helvetica, sans-serif;font-size:12px;color:#666;fill:#666;" y="14" x="1"><tspan x="1">From</tspan></text></g><g transform="translate(35,0)" style="text-align:center;"><rect stroke-width="1" stroke="silver" height="18" width="92" y="0.5" x="0.5" fill="none" ry="0" rx="0"></rect><text  style="font-family:'lucida grande', 'lucida sans unicode', verdana, arial, helvetica, sans-serif;font-size:12px;" y="14" x="9.5"><tspan x="9.5">Aug 30, 2013</tspan></text></g><g transform="translate(137,0)" style="fill:#666;"><text  style="font-family:'lucida grande', 'lucida sans unicode', verdana, arial, helvetica, sans-serif;font-size:12px;color:#666;fill:#666;" y="14" x="1"><tspan x="1">To</tspan></text></g><g transform="translate(157,0)" style="text-align:center;"><rect stroke-width="1" stroke="silver" height="18" width="92" y="0.5" x="0.5" fill="none" ry="0" rx="0"></rect><text  style="font-family:'lucida grande', 'lucida sans unicode', verdana, arial, helvetica, sans-serif;font-size:12px;" y="14" x="9.5"><tspan x="9.5">Aug 30, 2013</tspan></text></g></g><g  class="highcharts-grid"></g><g  class="highcharts-grid"><path opacity="1"  stroke-width="1" stroke="#C0C0C0" d="M 34 225.5 L 556 225.5" fill="none"></path><path opacity="1"  stroke-width="1" stroke="#C0C0C0" d="M 34 176.5 L 556 176.5" fill="none"></path><path opacity="1"  stroke-width="1" stroke="#C0C0C0" d="M 34 128.5 L 556 128.5" fill="none"></path><path opacity="1"  stroke-width="1" stroke="#C0C0C0" d="M 34 78.5 L 556 78.5" fill="none"></path><path opacity="1"  stroke-width="1" stroke="#C0C0C0" d="M 34 273.5 L 556 273.5" fill="none"></path></g><g  class="highcharts-grid"><path opacity="1"  stroke-width="1" stroke="#C0C0C0" d="M 34 225.5 L 556 225.5" fill="none"></path><path opacity="1"  stroke-width="1" stroke="#C0C0C0" d="M 34 176.5 L 556 176.5" fill="none"></path><path opacity="1"  stroke-width="1" stroke="#C0C0C0" d="M 34 128.5 L 556 128.5" fill="none"></path><path opacity="1"  stroke-width="1" stroke="#C0C0C0" d="M 34 78.5 L 556 78.5" fill="none"></path><path opacity="1"  stroke-width="1" stroke="#C0C0C0" d="M 34 273.5 L 556 273.5" fill="none"></path></g><g  class="highcharts-grid"><path opacity="1"  stroke-width="1" stroke="#C0C0C0" d="M 34 225.5 L 556 225.5" fill="none"></path><path opacity="1"  stroke-width="1" stroke="#C0C0C0" d="M 34 176.5 L 556 176.5" fill="none"></path><path opacity="1"  stroke-width="1" stroke="#C0C0C0" d="M 34 128.5 L 556 128.5" fill="none"></path><path opacity="1"  stroke-width="1" stroke="#C0C0C0" d="M 34 78.5 L 556 78.5" fill="none"></path><path opacity="1"  stroke-width="1" stroke="#C0C0C0" d="M 34 273.5 L 556 273.5" fill="none"></path></g><g  class="highcharts-grid"><path opacity="1"  stroke-width="1" stroke="#C0C0C0" d="M 438.5 296 L 438.5 336" fill="none"></path><path opacity="1"  stroke-width="1" stroke="#C0C0C0" d="M 197.5 296 L 197.5 336" fill="none"></path></g><g  class="highcharts-grid"></g><g  class="highcharts-axis"><path opacity="1" stroke-width="1" stroke="#C0D0E0" d="M 209.5 273 L 209.5 278" fill="none"></path><path opacity="1" stroke-width="1" stroke="#C0D0E0" d="M 301.5 273 L 301.5 278" fill="none"></path><path opacity="1" stroke-width="1" stroke="#C0D0E0" d="M 453.5 273 L 453.5 278" fill="none"></path><path opacity="1" stroke-width="1" stroke="#C0D0E0" d="M 546.5 273 L 546.5 278" fill="none"></path><path opacity="1" stroke-width="1" stroke="#C0D0E0" d="M 116.5 273 L 116.5 278" fill="none"></path><path visibility="visible"  stroke-width="1" stroke="#C0D0E0" d="M 34 273.5 L 556 273.5" fill="none"></path></g><g  class="highcharts-axis"><text visibility="visible" transform="translate(0,0) rotate(270 24 176)" text-anchor="middle"  style="font-family:'lucida grande', 'lucida sans unicode', verdana, arial, helvetica, sans-serif;font-size:12px;color:#4d759e;font-weight:bold;fill:#4d759e;" y="176" x="24"><tspan x="24">Bits per Second</tspan></text></g><g  class="highcharts-axis"><text visibility="visible" transform="translate(0,0) rotate(90 566 176)" text-anchor="middle"  style="font-family:'lucida grande', 'lucida sans unicode', verdana, arial, helvetica, sans-serif;font-size:12px;color:#4d759e;font-weight:bold;fill:#4d759e;" y="176" x="566"><tspan x="566">Packets per Second</tspan></text></g><g  class="highcharts-axis"></g><g  class="highcharts-axis"></g><g  class="highcharts-axis"></g><g  class="highcharts-series-group"><g clip-path="url(#highcharts-16)" transform="translate(34,79) scale(1 1)"  visibility="visible" class="highcharts-series"><path  fill-opacity="0.75" d="M -1.5398231103515625 191.39555000000001 L 13.858407143554688 191.429112 L 29.25663697265625 191.657838 L 44.6548672265625 189.525002 L 60.05309705566406 178.079584 L 75.45132730957032 180.174978 L 90.84955756347657 175.124188 L 106.24778739257813 187.160142 L 121.64601764648438 184.71884599999998 L 137.04424747558593 182.944328 L 152.4424777294922 183.575216 L 167.84070798339843 191.789176 L 183.2389378125 191.781998 L 198.63716806640625 187.287988 L 214.0353983203125 190.271902 L 229.43362814941406 191.418636 L 244.83185840332033 190.567364 L 260.23008823242185 189.271638 L 275.6283184863281 191.445602 L 291.0265487402344 190.945858 L 321.82300882324216 186.794452 L 352.61946890625 185.329364 L 383.4159289892578 186.737222 L 414.21238907226564 184.38924 L 429.6106193261719 189.462534 L 445.0088495800781 181.710682 L 460.4070794091797 184.479838 L 475.80530966308595 188.51077 L 491.2035399169922 180.777736 L 506.60176974609374 180.675498 L 522 174.263022 L 522 194 L -1.5398231103515625 194" fill="rgb(0,255,0)"></path><path  stroke-width="1" stroke="#00ff00" d="M -1.5398231103515625 191.39555000000001 L 13.858407143554688 191.429112 L 29.25663697265625 191.657838 L 44.6548672265625 189.525002 L 60.05309705566406 178.079584 L 75.45132730957032 180.174978 L 90.84955756347657 175.124188 L 106.24778739257813 187.160142 L 121.64601764648438 184.71884599999998 L 137.04424747558593 182.944328 L 152.4424777294922 183.575216 L 167.84070798339843 191.789176 L 183.2389378125 191.781998 L 198.63716806640625 187.287988 L 214.0353983203125 190.271902 L 229.43362814941406 191.418636 L 244.83185840332033 190.567364 L 260.23008823242185 189.271638 L 275.6283184863281 191.445602 L 291.0265487402344 190.945858 L 321.82300882324216 186.794452 L 352.61946890625 185.329364 L 383.4159289892578 186.737222 L 414.21238907226564 184.38924 L 429.6106193261719 189.462534 L 445.0088495800781 181.710682 L 460.4070794091797 184.479838 L 475.80530966308595 188.51077 L 491.2035399169922 180.777736 L 506.60176974609374 180.675498 L 522 174.263022" fill="none"></path><path style="" class=" highcharts-tracker"  stroke-width="21" stroke="rgb(192,192,192)" stroke-opacity="0.0001" visibility="visible" stroke-linejoin="round" d="M -11.539823110351563 191.39555000000001 L -1.5398231103515625 191.39555000000001 L 13.858407143554688 191.429112 L 29.25663697265625 191.657838 L 44.6548672265625 189.525002 L 60.05309705566406 178.079584 L 75.45132730957032 180.174978 L 90.84955756347657 175.124188 L 106.24778739257813 187.160142 L 121.64601764648438 184.71884599999998 L 137.04424747558593 182.944328 L 152.4424777294922 183.575216 L 167.84070798339843 191.789176 L 183.2389378125 191.781998 L 198.63716806640625 187.287988 L 214.0353983203125 190.271902 L 229.43362814941406 191.418636 L 244.83185840332033 190.567364 L 260.23008823242185 189.271638 L 275.6283184863281 191.445602 L 291.0265487402344 190.945858 L 321.82300882324216 186.794452 L 352.61946890625 185.329364 L 383.4159289892578 186.737222 L 414.21238907226564 184.38924 L 429.6106193261719 189.462534 L 445.0088495800781 181.710682 L 460.4070794091797 184.479838 L 475.80530966308595 188.51077 L 491.2035399169922 180.777736 L 506.60176974609374 180.675498 L 522 174.263022 L 532 174.263022" fill="none"></path></g><g clip-path="none" style="" transform="translate(34,79) scale(1 1)"  visibility="visible" class="highcharts-markers highcharts-tracker"></g><g clip-path="url(#highcharts-16)" transform="translate(34,79) scale(1 1)"  visibility="visible" class="highcharts-series"><path  stroke-width="1" stroke="#0000ff" d="M -1.5398231103515625 192.34906 L 13.858407143554688 192.598544 L 29.25663697265625 192.207828 L 44.6548672265625 189.678844 L 60.05309705566406 175.572522 L 75.45132730957032 180.799852 L 90.84955756347657 174.804088 L 106.24778739257813 184.993938 L 121.64601764648438 151.43407200000001 L 137.04424747558593 153.429168 L 152.4424777294922 169.764744 L 167.84070798339843 192.353716 L 183.2389378125 192.21035 L 198.63716806640625 170.890332 L 214.0353983203125 191.196894 L 229.43362814941406 192.57992 L 244.83185840332033 191.174196 L 260.23008823242185 188.65355399999999 L 275.6283184863281 192.07261 L 291.0265487402344 191.955434 L 321.82300882324216 179.663206 L 352.61946890625 186.707734 L 398.81415924316406 184.092032 L 414.21238907226564 185.628124 L 429.6106193261719 186.846056 L 445.0088495800781 131.519196 L 460.4070794091797 120.939212 L 475.80530966308595 163.389128 L 491.2035399169922 140.396636 L 506.60176974609374 108.574428 L 522 41.69564399999999" fill="none"></path><path style="" class=" highcharts-tracker"  stroke-width="21" stroke="rgb(192,192,192)" stroke-opacity="0.0001" visibility="visible" stroke-linejoin="round" d="M -11.539823110351563 192.34906 L -1.5398231103515625 192.34906 L 13.858407143554688 192.598544 L 29.25663697265625 192.207828 L 44.6548672265625 189.678844 L 60.05309705566406 175.572522 L 75.45132730957032 180.799852 L 90.84955756347657 174.804088 L 106.24778739257813 184.993938 L 121.64601764648438 151.43407200000001 L 137.04424747558593 153.429168 L 152.4424777294922 169.764744 L 167.84070798339843 192.353716 L 183.2389378125 192.21035 L 198.63716806640625 170.890332 L 214.0353983203125 191.196894 L 229.43362814941406 192.57992 L 244.83185840332033 191.174196 L 260.23008823242185 188.65355399999999 L 275.6283184863281 192.07261 L 291.0265487402344 191.955434 L 321.82300882324216 179.663206 L 352.61946890625 186.707734 L 398.81415924316406 184.092032 L 414.21238907226564 185.628124 L 429.6106193261719 186.846056 L 445.0088495800781 131.519196 L 460.4070794091797 120.939212 L 475.80530966308595 163.389128 L 491.2035399169922 140.396636 L 506.60176974609374 108.574428 L 522 41.69564399999999 L 532 41.69564399999999" fill="none"></path></g><g clip-path="none" style="" transform="translate(34,79) scale(1 1)"  visibility="visible" class="highcharts-markers highcharts-tracker"></g><g clip-path="url(#highcharts-16)" transform="translate(34,79) scale(1 1)"  visibility="visible" class="highcharts-series"><path  stroke-width="1" stroke="#ff9933" d="M -1.5398231103515625 180.808 L 13.858407143554688 181.778 L 29.25663697265625 182.166 L 44.6548672265625 170.72 L 60.05309705566406 95.642 L 75.45132730957032 112.714 L 90.84955756347657 83.226 L 106.24778739257813 155.976 L 121.64601764648438 138.322 L 137.04424747558593 128.816 L 152.4424777294922 135.024 L 167.84070798339843 183.136 L 183.2389378125 183.524 L 198.63716806640625 155.588 L 214.0353983203125 174.018 L 229.43362814941406 181.778 L 244.83185840332033 176.928 L 260.23008823242185 168.78 L 275.6283184863281 180.808 L 291.0265487402344 178.48 L 321.82300882324216 153.84199999999998 L 352.61946890625 163.154 L 398.81415924316406 153.648 L 414.21238907226564 141.232 L 429.6106193261719 168.78 L 445.0088495800781 127.652 L 460.4070794091797 138.516 L 475.80530966308595 165.482 L 491.2035399169922 119.116 L 506.60176974609374 114.46 L 522 72.362" fill="none"></path><path style="" class=" highcharts-tracker"  stroke-width="21" stroke="rgb(192,192,192)" stroke-opacity="0.0001" visibility="visible" stroke-linejoin="round" d="M -11.539823110351563 180.808 L -1.5398231103515625 180.808 L 13.858407143554688 181.778 L 29.25663697265625 182.166 L 44.6548672265625 170.72 L 60.05309705566406 95.642 L 75.45132730957032 112.714 L 90.84955756347657 83.226 L 106.24778739257813 155.976 L 121.64601764648438 138.322 L 137.04424747558593 128.816 L 152.4424777294922 135.024 L 167.84070798339843 183.136 L 183.2389378125 183.524 L 198.63716806640625 155.588 L 214.0353983203125 174.018 L 229.43362814941406 181.778 L 244.83185840332033 176.928 L 260.23008823242185 168.78 L 275.6283184863281 180.808 L 291.0265487402344 178.48 L 321.82300882324216 153.84199999999998 L 352.61946890625 163.154 L 398.81415924316406 153.648 L 414.21238907226564 141.232 L 429.6106193261719 168.78 L 445.0088495800781 127.652 L 460.4070794091797 138.516 L 475.80530966308595 165.482 L 491.2035399169922 119.116 L 506.60176974609374 114.46 L 522 72.362 L 532 72.362" fill="none"></path></g><g clip-path="none" style="" transform="translate(34,79) scale(1 1)"  visibility="visible" class="highcharts-markers highcharts-tracker"></g><g clip-path="url(#highcharts-16)" transform="translate(34,79) scale(1 1)"  visibility="visible" class="highcharts-series"><path  stroke-width="1" stroke="#ffcc33" d="M -1.5398231103515625 184.494 L 13.858407143554688 185.27 L 29.25663697265625 182.36 L 44.6548672265625 174.212 L 60.05309705566406 117.952 L 75.45132730957032 135.994 L 90.84955756347657 118.34 L 106.24778739257813 160.244 L 121.64601764648438 139.68 L 137.04424747558593 134.442 L 152.4424777294922 144.918 L 167.84070798339843 183.33 L 183.2389378125 183.136 L 198.63716806640625 154.036 L 214.0353983203125 178.868 L 229.43362814941406 185.27 L 244.83185840332033 181.196 L 260.23008823242185 172.85399999999998 L 275.6283184863281 182.166 L 291.0265487402344 182.554 L 337.22123865234374 157.528 L 368.01769916015627 165.87 L 398.81415924316406 163.348 L 414.21238907226564 152.484 L 429.6106193261719 172.272 L 445.0088495800781 119.116 L 460.4070794091797 119.698 L 475.80530966308595 161.796 L 491.2035399169922 116.206 L 506.60176974609374 106.312 L 522 47.918000000000006" fill="none"></path><path style="" class=" highcharts-tracker"  stroke-width="21" stroke="rgb(192,192,192)" stroke-opacity="0.0001" visibility="visible" stroke-linejoin="round" d="M -11.539823110351563 184.494 L -1.5398231103515625 184.494 L 13.858407143554688 185.27 L 29.25663697265625 182.36 L 44.6548672265625 174.212 L 60.05309705566406 117.952 L 75.45132730957032 135.994 L 90.84955756347657 118.34 L 106.24778739257813 160.244 L 121.64601764648438 139.68 L 137.04424747558593 134.442 L 152.4424777294922 144.918 L 167.84070798339843 183.33 L 183.2389378125 183.136 L 198.63716806640625 154.036 L 214.0353983203125 178.868 L 229.43362814941406 185.27 L 244.83185840332033 181.196 L 260.23008823242185 172.85399999999998 L 275.6283184863281 182.166 L 291.0265487402344 182.554 L 337.22123865234374 157.528 L 368.01769916015627 165.87 L 398.81415924316406 163.348 L 414.21238907226564 152.484 L 429.6106193261719 172.272 L 445.0088495800781 119.116 L 460.4070794091797 119.698 L 475.80530966308595 161.796 L 491.2035399169922 116.206 L 506.60176974609374 106.312 L 522 47.918000000000006 L 532 47.918000000000006" fill="none"></path></g><g clip-path="none" style="" transform="translate(34,79) scale(1 1)"  visibility="visible" class="highcharts-markers highcharts-tracker"></g><g clip-path="url(#highcharts-16)" transform="translate(34,79) scale(1 1)"  visibility="visible" class="highcharts-series"><path  stroke-width="1" stroke="#996600" d="M -1.5398231103515625 187.792 L 13.858407143554688 186.434 L 29.25663697265625 187.792 L 44.6548672265625 185.27 L 60.05309705566406 186.434 L 75.45132730957032 189.538 L 90.84955756347657 187.598 L 106.24778739257813 186.822 L 121.64601764648438 188.18 L 137.04424747558593 187.986 L 152.4424777294922 186.434 L 167.84070798339843 187.016 L 183.2389378125 187.016 L 198.63716806640625 186.628 L 214.0353983203125 187.986 L 229.43362814941406 185.658 L 244.83185840332033 184.3 L 260.23008823242185 186.24 L 275.6283184863281 187.21 L 291.0265487402344 186.046 L 337.22123865234374 187.016 L 368.01769916015627 136.576 L 398.81415924316406 184.688 L 414.21238907226564 183.718 L 429.6106193261719 188.762 L 445.0088495800781 169.75 L 460.4070794091797 181.196 L 475.80530966308595 182.748 L 491.2035399169922 183.136 L 506.60176974609374 186.434 L 522 185.464" fill="none"></path><path style="" class=" highcharts-tracker"  stroke-width="21" stroke="rgb(192,192,192)" stroke-opacity="0.0001" visibility="visible" stroke-linejoin="round" d="M -11.539823110351563 187.792 L -1.5398231103515625 187.792 L 13.858407143554688 186.434 L 29.25663697265625 187.792 L 44.6548672265625 185.27 L 60.05309705566406 186.434 L 75.45132730957032 189.538 L 90.84955756347657 187.598 L 106.24778739257813 186.822 L 121.64601764648438 188.18 L 137.04424747558593 187.986 L 152.4424777294922 186.434 L 167.84070798339843 187.016 L 183.2389378125 187.016 L 198.63716806640625 186.628 L 214.0353983203125 187.986 L 229.43362814941406 185.658 L 244.83185840332033 184.3 L 260.23008823242185 186.24 L 275.6283184863281 187.21 L 291.0265487402344 186.046 L 337.22123865234374 187.016 L 368.01769916015627 136.576 L 398.81415924316406 184.688 L 414.21238907226564 183.718 L 429.6106193261719 188.762 L 445.0088495800781 169.75 L 460.4070794091797 181.196 L 475.80530966308595 182.748 L 491.2035399169922 183.136 L 506.60176974609374 186.434 L 522 185.464 L 532 185.464" fill="none"></path></g><g clip-path="none" style="" transform="translate(34,79) scale(1 1)"  visibility="visible" class="highcharts-markers highcharts-tracker"></g><g clip-path="url(#highcharts-16)" transform="translate(34,79) scale(1 1)"  visibility="visible" class="highcharts-series"><path  stroke-width="1" stroke="#990000" d="M -1.5398231103515625 194 L 13.858407143554688 194 L 29.25663697265625 194 L 44.6548672265625 194 L 60.05309705566406 194 L 75.45132730957032 194 L 90.84955756347657 194 L 106.24778739257813 194 L 121.64601764648438 194 L 137.04424747558593 194 L 152.4424777294922 194 L 167.84070798339843 194 L 183.2389378125 194 L 198.63716806640625 194 L 214.0353983203125 194 L 229.43362814941406 194 L 244.83185840332033 194 L 260.23008823242185 194 L 275.6283184863281 194 L 291.0265487402344 194 L 337.22123865234374 194 L 368.01769916015627 194 L 398.81415924316406 194 L 414.21238907226564 194 L 429.6106193261719 194 L 445.0088495800781 194 L 460.4070794091797 194 L 475.80530966308595 194 L 491.2035399169922 194 L 506.60176974609374 194 L 522 194" fill="none"></path><path style="" class=" highcharts-tracker"  stroke-width="21" stroke="rgb(192,192,192)" stroke-opacity="0.0001" visibility="visible" stroke-linejoin="round" d="M -11.539823110351563 194 L -1.5398231103515625 194 L 13.858407143554688 194 L 29.25663697265625 194 L 44.6548672265625 194 L 60.05309705566406 194 L 75.45132730957032 194 L 90.84955756347657 194 L 106.24778739257813 194 L 121.64601764648438 194 L 137.04424747558593 194 L 152.4424777294922 194 L 167.84070798339843 194 L 183.2389378125 194 L 198.63716806640625 194 L 214.0353983203125 194 L 229.43362814941406 194 L 244.83185840332033 194 L 260.23008823242185 194 L 275.6283184863281 194 L 291.0265487402344 194 L 337.22123865234374 194 L 368.01769916015627 194 L 398.81415924316406 194 L 414.21238907226564 194 L 429.6106193261719 194 L 445.0088495800781 194 L 460.4070794091797 194 L 475.80530966308595 194 L 491.2035399169922 194 L 506.60176974609374 194 L 522 194 L 532 194" fill="none"></path></g><g clip-path="none" style="" transform="translate(34,79) scale(1 1)"  visibility="visible" class="highcharts-markers highcharts-tracker"></g><g clip-path="url(#highcharts-16)" transform="translate(34,79) scale(1 1)"  visibility="visible" class="highcharts-series"><path  stroke-width="1" stroke="#ff0000" d="M -1.5398231103515625 184.3 L 13.858407143554688 184.3 L 29.25663697265625 184.3 L 44.6548672265625 182.36 L 60.05309705566406 180.42 L 75.45132730957032 182.36 L 90.84955756347657 182.36 L 106.24778739257813 184.3 L 121.64601764648438 182.36 L 137.04424747558593 182.36 L 152.4424777294922 182.36 L 167.84070798339843 184.3 L 183.2389378125 184.3 L 198.63716806640625 184.3 L 214.0353983203125 184.3 L 229.43362814941406 184.3 L 244.83185840332033 184.3 L 260.23008823242185 184.3 L 275.6283184863281 184.3 L 306.42477856933596 184.3 L 337.22123865234374 184.3 L 368.01769916015627 184.3 L 398.81415924316406 182.36 L 414.21238907226564 182.36 L 429.6106193261719 184.3 L 445.0088495800781 182.36 L 460.4070794091797 182.36 L 475.80530966308595 180.42 L 491.2035399169922 182.36 L 506.60176974609374 182.36 L 522 178.48" fill="none"></path><path style="" class=" highcharts-tracker"  stroke-width="21" stroke="rgb(192,192,192)" stroke-opacity="0.0001" visibility="visible" stroke-linejoin="round" d="M -11.539823110351563 184.3 L -1.5398231103515625 184.3 L 13.858407143554688 184.3 L 29.25663697265625 184.3 L 44.6548672265625 182.36 L 60.05309705566406 180.42 L 75.45132730957032 182.36 L 90.84955756347657 182.36 L 106.24778739257813 184.3 L 121.64601764648438 182.36 L 137.04424747558593 182.36 L 152.4424777294922 182.36 L 167.84070798339843 184.3 L 183.2389378125 184.3 L 198.63716806640625 184.3 L 214.0353983203125 184.3 L 229.43362814941406 184.3 L 244.83185840332033 184.3 L 260.23008823242185 184.3 L 275.6283184863281 184.3 L 306.42477856933596 184.3 L 337.22123865234374 184.3 L 368.01769916015627 184.3 L 398.81415924316406 182.36 L 414.21238907226564 182.36 L 429.6106193261719 184.3 L 445.0088495800781 182.36 L 460.4070794091797 182.36 L 475.80530966308595 180.42 L 491.2035399169922 182.36 L 506.60176974609374 182.36 L 522 178.48 L 532 178.48" fill="none"></path></g><g clip-path="none" style="" transform="translate(34,79) scale(1 1)"  visibility="visible" class="highcharts-markers highcharts-tracker"></g><g transform="translate(48,296) scale(1 1)"  visibility="visible" class="highcharts-series"><path  fill-opacity="0.4" d="M 0 8.128144111735065 C 0 8.128144111735065 1.2048780485010582 29.669753041161567 2.008130080835097 29.669753041161567 C 2.8113821131691354 29.669753041161567 3.213008129336155 28.22478481399139 4.016260161670194 22.957500919743108 C 4.819512194004233 17.69021702549482 5.221138210171252 3.33333356992015 6.02439024250529 3.33333356992015 C 6.827642274839329 3.33333356992015 7.229268291006349 11.434577475780682 8.032520323340387 17.864590978784435 C 8.835772355674425 24.294604481788188 9.237398371841445 35.36217399595378 10.040650404175484 35.48340108493891 C 10.843902436509522 35.60462817392404 11.245528452676542 35.60462817392404 12.04878048501058 35.60462817392404 C 12.852032517344616 35.60462817392404 13.253658533511636 20.632609510611488 14.056910565845676 20.632609510611488 C 14.860162598179716 20.632609510611488 15.261788614346736 24.82237291302661 16.065040646680774 27.83194658675786 C 16.868292682288132 30.84152027275337 17.269918700091814 35.68047790992839 18.07317073569917 35.68047790992839 C 18.87642276803321 35.68047790992839 19.27804878420023 35.59393444944682 20.081300816534267 35.59393444944682 C 20.884552848868303 35.59393444944682 21.286178865035325 35.8112631066321 22.089430897369365 35.8112631066321 C 22.892682929703405 35.8112631066321 23.29430894587042 35.8112631066321 24.09756097820446 35.72495623297524 C 24.9008130105385 35.63864935931838 25.30243902670552 25.69003142786257 26.105691059039557 25.69003142786257 C 26.908943091373594 25.69003142786257 27.310569107540612 25.967055672660507 28.113821139874652 27.521544672728805 C 28.91707317220869 29.076033672797095 29.31869918837571 33.46247642820404 30.12195122070975 33.46247642820404 C 30.925203253043787 33.46247642820404 31.326829269210812 33.46247642820404 32.13008130154485 33.41085318305073 C 32.933333333878885 33.359229937897425 33.33495935004591 33.41085318305073 34.13821138237994 32.892538767460145 C 34.94146341471398 32.37422435186956 35.343089430881 28.74670481279065 36.14634146321504 26.6116317448662 C 36.94959349554908 24.476558676941732 37.3512195117161 24.15034329954859 38.15447154405014 22.217173427837842 C 38.957723576384176 20.284003556127093 39.3593495925512 18.482215079918333 40.162601624885234 16.945782386312462 C 40.96585365721927 15.409349692706591 41.367479673386285 14.53500995980848 42.17073170572033 14.53500995980848 C 42.97398373805437 14.53500995980848 43.37560975422139 23.005338775700938 44.17886178655543 23.005338775700938 C 44.98211381888947 23.005338775700938 45.38373983505649 22.715491525003323 46.186991867390525 22.23065887684673 C 46.99024389972456 21.745826228690134 47.39186991589158 20.581175534917957 48.19512194822562 20.581175534917957 C 48.998373980559656 20.581175534917957 49.39999999672668 22.798287450181373 50.203252029060714 23.650558364069862 C 51.00650406139475 24.502829277958348 51.40813007756177 24.53563913943544 52.211382109895816 24.842530104360385 C 53.014634145503166 25.149421070535933 53.41626016330686 25.1850131918211 54.21951219891421 25.1850131918211 C 55.022764231248246 25.1850131918211 55.42439024741526 16.531802760422195 56.227642279749304 16.531802760422195 C 57.03089431208334 16.531802760422195 57.43252032825037 22.975576153151504 58.235772360584406 22.975576153151504 C 59.03902439291844 22.975576153151504 59.44065040908547 12.574367626011565 60.2439024414195 12.574367626011565 C 61.04715447375354 12.574367626011565 61.44878048992056 12.574367626011565 62.252032522254595 13.342801632693241 C 63.05528455458864 14.111235639374918 63.45691057075565 19.10544155706155 64.2601626030897 20.331623752206188 C 65.06341463542374 21.557805947350825 65.46504065159074 21.557805947350825 66.26829268392478 21.557805947350825 C 67.07154471625883 21.557805947350825 67.47317073242584 21.43028564882822 68.27642276475989 21.43028564882822 C 69.07967479709393 21.43028564882822 69.48130081326094 29.402741150785662 70.28455284559499 29.402741150785662 C 71.08780487792902 29.402741150785662 71.48943089409605 28.494153109141475 72.29268292643007 27.262955273312834 C 73.0959349587641 26.03175743748419 73.49756097493113 23.246751971642436 74.30081300726518 23.246751971642436 C 75.10406503959922 23.246751971642436 75.50569105576623 30.208319288947948 76.30894308810028 30.208319288947948 C 77.11219512043431 30.208319288947948 77.51382113660134 21.024444609708222 78.31707316893537 21.024444609708222 C 79.12032520126941 21.024444609708222 79.52195121743642 23.363105372038387 80.32520324977047 23.363105372038387 C 81.12845528210451 23.363105372038387 81.53008129827154 21.51361152849364 82.33333333060557 21.51361152849364 C 83.1365853629396 21.51361152849364 83.53821137910663 23.859067064429695 84.34146341144066 25.243071598606715 C 85.1447154437747 26.627076132783756 85.54634145994171 28.4336341993788 86.34959349227576 28.4336341993788 C 87.15284552788312 28.4336341993788 87.55447154568678 26.122322873985958 88.35772358129415 26.122322873985958 C 89.1609756136282 26.122322873985958 89.56260162979521 31.222718422078678 90.36585366212925 33.10806936477758 C 91.1691056944633 34.99342030747647 91.5707317106303 35.549077587480426 92.37398374296434 35.549077587480426 C 93.17723577529839 35.549077587480426 93.5788617914654 34.76228444320069 94.38211382379944 34.76228444320069 C 95.18536585613349 34.76228444320069 95.5869918723005 35.47710787540144 96.39024390463454 35.47710787540144 C 97.19349593696859 35.47710787540144 97.59512195313559 35.47710787540144 98.39837398546963 35.46016825875168 C 99.20162601780368 35.44322864210192 99.60325203397069 34.868985101148176 100.40650406630473 34.868985101148176 C 101.20975609863879 34.868985101148176 101.61138211480579 36.3821944320398 102.41463414713984 36.3821944320398 C 103.21788617947387 36.3821944320398 103.6195121956409 36.20111087640121 104.42276422797492 36.20111087640121 C 105.22601626030897 36.20111087640121 105.627642276476 36.26006831312075 106.43089430881002 36.26006831312075 C 107.23414634114405 36.26006831312075 107.63577235731108 35.55073369525345 108.43902438964513 35.55073369525345 C 109.24227642197916 35.55073369525345 109.64390243814618 36.10978836206034 110.44715447048021 36.10978836206034 C 111.25040650281426 36.10978836206034 111.65203251898126 33.57258393642745 112.45528455131532 33.57258393642745 C 113.25853658364936 33.57258393642745 113.66016259981639 35.79020687923226 114.46341463215042 35.96476063850866 C 115.26666666448446 36.13931439778506 115.66829268065146 36.08223072871727 116.4715447129855 36.13931439778506 C 117.27479674531955 36.19639806685284 117.67642276148656 36.25017898384757 118.4796747938206 36.25017898384757 C 119.28292682615465 36.25017898384757 119.68455284232166 35.85297809556624 120.4878048746557 35.81514313055746 C 121.29105690698972 35.777308165548675 121.69268292315675 35.777308165548675 122.4959349554908 35.777308165548675 C 123.29918699109817 35.777308165548675 123.70081300890183 36.166096026343055 124.50406504450919 36.26243418136792 C 125.30731707684325 36.35877233639279 125.70894309301025 36.35877233639279 126.51219512534429 36.35877233639279 C 127.31544715767832 36.35877233639279 127.71707317384535 35.40892355251792 128.5203252061794 35.40892355251792 C 129.32357723851342 35.40892355251792 129.72520325468045 35.81977076884893 130.52845528701448 36.019696099208005 C 131.3317073193485 36.219621429567084 131.73333333551554 36.40855020431331 132.53658536784957 36.40855020431331 C 133.33983740018363 36.40855020431331 133.74146341635065 36.24970581019814 134.54471544868468 36.24970581019814 C 135.3479674810187 36.24970581019814 135.74959349718574 36.28322543152408 136.55284552951977 36.3580152585537 C 137.3560975618538 36.43280508558332 137.75772357802083 36.623654945346246 138.56097561035486 36.623654945346246 C 139.36422764268892 36.623654945346246 139.76585365885595 36.58202512766899 140.56910569118998 36.422130288052074 C 141.372357723524 36.262235448435156 141.77398373969103 35.824180747261664 142.57723577202506 35.824180747261664 C 143.38048780435912 35.824180747261664 143.78211382052612 36.1700706849983 144.58536585286015 36.1700706849983 C 145.3886178851942 36.1700706849983 145.7902439013612 35.54477170727058 146.59349593369527 35.53294236603471 C 147.3967479660293 35.521113024798844 147.79837398219632 35.53294236603471 148.60162601453035 35.521113024798844 C 149.4048780468644 35.50928368356298 149.80650406303138 35.434522246952326 150.60975609536544 35.434522246952326 C 151.41300812769947 35.434522246952326 151.8146341438665 36.300146121227854 152.61788617620056 36.300146121227854 C 153.42113820853461 36.300146121227854 153.82276422470161 34.897848693763684 154.62601625703564 34.897848693763684 C 155.42926828936967 34.897848693763684 155.83089430553667 35.23549594652718 156.63414633787073 35.36558084622972 C 157.4373983702048 35.49566574593226 157.83902438637182 35.36558084622972 158.64227641870585 35.54827319227638 C 159.4455284543132 35.73096553832305 159.84715447211687 36.38403980927259 160.65040650772423 36.38403980927259 C 161.45365854005826 36.38403980927259 161.85528455622529 35.657812892120475 162.65853658855934 35.514015420057326 C 163.46178862089337 35.37021794799418 163.8634146370604 35.37021794799418 164.66666666939443 35.37021794799418 C 165.46991870172846 35.37021794799418 165.8715447178955 35.92014036336698 166.67479675022952 35.92014036336698 C 167.47804878256358 35.92014036336698 167.8796747987306 35.17394551820873 168.68292683106463 35.17394551820873 C 169.48617886339866 35.17394551820873 169.8878048795657 36.36960801296485 170.69105691189972 36.36960801296485 C 171.49430894423375 36.36960801296485 171.89593496040078 35.456572139015975 172.6991869927348 35.456572139015975 C 173.50243902506887 35.456572139015975 173.9040650412359 35.456572139015975 174.70731707356993 35.577089467526946 C 175.51056910590395 35.69760679603792 175.91219512207098 36.30189686373076 176.715447154405 36.30189686373076 C 177.51869918673907 36.30189686373076 177.92032520290607 35.50062460577833 178.7235772352401 35.39624249871307 C 179.52682926757413 35.291860391647816 179.92845528374113 35.291860391647816 180.7317073160752 35.291860391647816 C 181.53495934840922 35.291860391647816 181.93658536457627 35.914414962208824 182.7398373969103 36.112816673416724 C 183.54308942924436 36.311218384624624 183.94471544541133 36.311218384624624 184.7479674777454 36.311218384624624 C 185.55121951007942 36.311218384624624 185.95284552624645 36.24251357072673 186.75609755858048 36.24251357072673 C 187.55934959091454 36.24251357072673 187.96097560708154 36.44886459924513 188.7642276394156 36.44886459924513 C 189.56747967174962 36.44886459924513 189.96910568791662 36.44088689151566 190.77235772025068 36.40793507856904 C 191.5756097525847 36.37498326562242 191.97723576875174 36.28410553451202 192.78048780108577 36.28410553451202 C 193.58373983669313 36.28410553451202 193.98536585449682 36.31930965402995 194.78861789010418 36.31930965402995 C 195.5918699224382 36.31930965402995 195.99349593860524 35.65658264063195 196.79674797093926 35.65658264063195 C 197.60000000327332 35.65658264063195 198.00162601944035 36.01728291359589 198.80487805177438 36.01728291359589 C 199.6081300841084 36.01728291359589 200.00975610027544 35.93618095008281 200.81300813260947 35.93523460278394 C 201.61626016494353 35.93428825548508 202.01788618111053 35.93428825548508 202.82113821344456 35.93428825548508 C 203.6243902457786 35.93428825548508 204.0260162619456 36.21682024156243 204.82926829427967 36.21682024156243 C 205.6325203266137 36.21682024156243 206.03414634278073 35.551254186267826 206.83739837511476 35.551254186267826 C 207.64065040744882 35.551254186267826 208.0422764236158 36.40159455166662 208.84552845594985 36.40159455166662 C 209.64878048828388 36.40159455166662 210.05040650445093 36.2812759560884 210.85365853678496 36.16098575092916 C 211.65691056911902 36.04069554576991 212.05853658528605 36.16098575092916 212.86178861762005 35.80014352587039 C 213.66504064995405 35.43930130081162 214.06666666612108 33.17227902900584 214.86991869845514 33.17227902900584 C 215.67317073078917 33.17227902900584 216.07479674695622 35.38748878619854 216.87804877929025 35.451319911507255 C 217.6813008116243 35.51515103681597 218.08292682779128 35.51515103681597 218.88617886012534 35.51515103681597 C 219.68943089245937 35.51515103681597 220.0910569086264 35.23498491898579 220.89430894096043 35.23498491898579 C 221.69756097329446 35.23498491898579 222.0991869894615 36.25008434911768 222.90243902179554 36.25008434911768 C 223.7056910541296 36.25008434911768 224.10731707029657 36.144330038469064 224.91056910263063 36.144330038469064 C 225.71382113496466 36.144330038469064 226.1154471511317 36.36135586451871 226.91869918346572 36.36135586451871 C 227.72195121579975 36.36135586451871 228.12357723196678 35.9702494528421 228.92682926430084 35.9702494528421 C 229.73008129990816 35.9702494528421 230.13170731771189 36.03391969900449 230.93495935331921 36.08570382330412 C 231.73821138565327 36.13748794739273 232.13983740182024 36.229170073812675 232.9430894341543 36.229170073812675 C 233.74634146648833 36.229170073812675 234.1479674826554 36.229170073812675 234.95121951498942 36.205558708705894 C 235.75447154732348 36.18194734359911 236.1560975634905 35.6970389876586 236.9593495958245 35.6970389876586 C 237.7626016281585 35.6970389876586 238.16422764432554 36.0301627003335 238.9674796766596 36.17078044547245 C 239.77073170899362 36.311398190611406 240.17235772516068 36.40012771335337 240.9756097574947 36.40012771335337 C 241.77886178982877 36.40012771335337 242.18048780599574 35.99097445868733 242.9837398383298 35.99097445868733 C 243.78699187066383 35.99097445868733 244.18861788683085 36.55835698172428 244.99186991916488 36.55835698172428 C 245.7951219514989 36.55835698172428 246.19674796766594 36.44105723402946 247 36.40012771335337 C 247.80325203233406 36.35919819267728 248.20487804850103 36.38105881528116 249.0081300808351 36.353709378343844 C 249.81138211316912 36.32635994140653 250.21300812933615 36.3138303031695 251.01626016167017 36.263380528666794 C 251.8195121940042 36.212930754164084 252.22113821017123 36.101460505830296 253.0243902425053 36.101460505830296 C 253.82764227483932 36.101460505830296 254.22926829100635 36.45246071898083 255.03252032334038 36.45246071898083 C 255.83577235567446 36.45246071898083 256.23739837184144 36.42400405570384 257.0406504041755 36.38228906676969 C 257.8439024365095 36.34057407783554 258.2455284526765 36.34746348617131 259.0487804850106 36.24388577431009 C 259.8520325173446 36.140308062448874 260.2536585335116 35.8644005074636 261.05691056584567 35.8644005074636 C 261.8601625981797 35.8644005074636 262.26178861434676 36.134128414789686 263.06504064668076 36.23347595402253 C 263.86829268228814 36.332823493660236 264.2699187000918 36.274500109251974 265.07317073569914 36.361138204639964 C 265.8764227680332 36.4477762996749 266.2780487842002 36.66666643007984 267.0813008165343 36.66666643007984 C 267.88455284886834 36.66666643007984 268.28617886503537 36.51020683115782 269.08943089736937 36.42165711440264 C 269.8926829297034 36.33310739764746 270.2943089458704 36.223917846303955 271.09756097820446 36.223917846303955 C 271.9008130105385 36.223917846303955 272.3024390267055 36.44739776093188 273.10569105903954 36.44739776093188 C 273.90894309137354 36.44739776093188 274.3105691075406 36.369655330329785 275.11382113987463 36.369655330329785 C 275.9170731722087 36.369655330329785 276.3186991883757 36.46717641947824 277.1219512207097 36.46717641947824 C 277.9252032530438 36.46717641947824 278.3268292692108 36.46717641947824 279.13008130154486 36.362226504033664 C 279.9333333338789 36.257276588589086 280.33495935004595 35.758068924962664 281.13821138237995 35.44086277385475 C 281.94146341471395 35.123656622746836 282.343089430881 34.77619574849407 283.14634146321504 34.77619574849407 C 283.94959349554904 34.77619574849407 284.35121951171607 35.38389266646283 285.1544715440501 35.38389266646283 C 285.9577235763842 35.38389266646283 286.3593495925512 33.644790235331165 287.1626016248852 33.644790235331165 C 287.96585365721927 33.644790235331165 288.36747967338624 34.060056893547895 289.1707317057203 34.585033594122514 C 289.97398373805436 35.11001029469713 290.3756097542214 36.26967373820427 291.17886178655544 36.26967373820427 C 291.9821138188895 36.26967373820427 292.3837398350565 34.45046300822334 293.18699186739053 34.45046300822334 C 293.99024389972453 34.45046300822334 294.39186991589156 34.45046300822334 295.1951219482256 34.45898013391316 C 295.9983739805597 34.46749725960298 296.3999999967267 35.46773903714263 297.2032520290607 35.46773903714263 C 298.00650406139476 35.46773903714263 298.4081300775618 34.71501439562218 299.2113821098958 34.71501439562218 C 300.0146341455032 34.71501439562218 300.41626016330684 36.133352409802185 301.2195121989142 36.133352409802185 C 302.02276423124823 36.133352409802185 302.42439024741526 36.045484063102194 303.2276422797493 36.045484063102194 C 304.0308943120834 36.045484063102194 304.4325203282504 36.17977074481171 305.2357723605844 36.17977074481171 C 306.0390243929184 36.17977074481171 306.44065040908544 35.18941829654524 307.2439024414195 35.18941829654524 C 308.0471544737535 35.18941829654524 308.4487804899205 35.18941829654524 309.2520325222546 35.402015217236176 C 310.05528455458864 35.61461213792711 310.45691057075567 36.37599585723221 311.26016260308967 36.37599585723221 C 312.0634146354237 36.37599585723221 312.4650406515907 36.290200011116745 313.26829268392476 36.210905570944504 C 314.0715447162588 36.131611130772264 314.47317073242584 36.1413679714236 315.2764227647599 35.979523656371015 C 316.07967479709396 35.81767934131843 316.48130081326093 35.40168399568157 317.284552845595 35.40168399568157 C 318.087804877929 35.40168399568157 318.489430894096 36.19604791835226 319.2926829264301 36.19604791835226 C 320.09593495876413 36.19604791835226 320.49756097493116 36.17352485263917 321.30081300726516 35.98964957246892 C 322.1040650395992 35.80577429229866 322.50569105576625 35.276671517500965 323.30894308810025 35.276671517500965 C 324.11219512043425 35.276671517500965 324.5138211366013 36.28514651654078 325.31707316893534 36.28514651654078 C 326.1203252012694 36.28514651654078 326.5219512174364 35.30165508619111 327.3252032497705 35.30165508619111 C 328.1284552821045 35.30165508619111 328.5300812982715 35.967306312742615 329.33333333060557 36.14269285764202 C 330.1365853629396 36.31807940254142 330.53821137910666 36.31807940254142 331.34146341144066 36.31807940254142 C 332.1447154437747 36.31807940254142 332.5463414599417 35.005826920564644 333.34959349227574 35.005826920564644 C 334.1528455278831 35.005826920564644 334.5544715456868 36.46443201231152 335.3577235812941 36.46443201231152 C 336.16097561362824 36.46443201231152 336.56260162979527 35.57079625798947 337.36585366212927 35.57079625798947 C 338.1691056944633 35.57079625798947 338.5707317106303 36.20125282849604 339.37398374296436 36.20125282849604 C 340.1772357752984 36.20125282849604 340.5788617914654 35.15954211231997 341.38211382379944 34.46394845723222 C 342.18536585613344 33.76835480214452 342.5869918723005 34.46394845723222 343.39024390463453 32.72328455305742 C 344.19349593696853 30.982620648882616 344.5951219531356 21.454559457044212 345.3983739854696 21.454559457044212 C 346.2016260178037 21.454559457044212 346.6032520339707 32.818155869769036 347.4065040663047 32.818155869769036 C 348.20975609863876 32.818155869769036 348.6113821148058 32.43781889035356 349.41463414713985 32.43781889035356 C 350.21788617947385 32.43781889035356 350.6195121956409 33.39741505140679 351.42276422797494 33.39741505140679 C 352.22601626030894 33.39741505140679 352.627642276476 31.750770751374628 353.43089430881 31.750770751374628 C 354.2341463411441 31.750770751374628 354.6357723573111 31.85698877219972 355.4390243896451 32.75508182229942 C 356.24227642197917 33.65317487239918 356.64390243814614 36.06772322462561 357.4471544704802 36.241236001873254 C 358.25040650281426 36.4147487791209 358.65203251898123 36.4147487791209 359.4552845513153 36.4147487791209 C 360.2585365836493 36.4147487791209 360.6601625998163 34.60949667179828 361.4634146321504 34.60949667179828 C 362.26666666448443 34.60949667179828 362.66829268065146 35.8571136332623 363.4715447129855 35.8571136332623 C 364.2747967453195 35.8571136332623 364.6764227614866 35.8571136332623 365.4796747938206 35.74497147834632 C 366.28292682615466 35.63282932343034 366.6845528423217 35.19041196120905 367.4878048746557 35.19041196120905 C 368.2910569069897 35.19041196120905 368.6926829231567 35.91545594423758 369.4959349554908 35.91545594423758 C 370.2991869910981 35.91545594423758 370.7008130089018 35.90764857902191 371.50406504450916 35.90764857902191 C 372.3073170768432 35.90764857902191 372.70894309301025 35.90764857902191 373.5121951253443 35.95515521342514 C 374.3154471576783 36.002661847828364 374.71707317384534 36.22543200198214 375.5203252061794 36.22543200198214 C 376.3235772385134 36.22543200198214 376.7252032546805 36.09147654182723 377.5284552870145 36.09147654182723 C 378.33170731934854 36.09147654182723 378.73333333551557 36.2040445530277 379.53658536784957 36.2040445530277 C 380.3398374001836 36.2040445530277 380.7414634163506 36.1007034279912 381.54471544868466 36.1007034279912 C 382.3479674810187 36.1007034279912 382.7495934971857 36.17683706818521 383.55284552951974 36.199738672817844 C 384.35609756185374 36.22264027745048 384.7577235780208 36.199738672817844 385.5609756103549 36.22264027745048 C 386.3642276426889 36.24554188208312 386.7658536588559 36.48009406010781 387.56910569119 36.5101405868469 C 388.372357723524 36.54018711358599 388.77398373969106 36.51622559997863 389.57723577202506 36.54018711358599 C 390.3804878043591 36.56414862719336 390.78211382052615 36.62994815488372 391.58536585286015 36.62994815488372 C 392.38861788519415 36.62994815488372 392.7902439013612 36.585507685728835 393.59349593369524 36.557079412870806 C 394.39674796602924 36.528651140012784 394.7983739821963 36.48780679059359 395.6016260145303 36.48780679059359 C 396.4048780468644 36.48780679059359 396.8065040630314 36.60756704126547 397.60975609536547 36.60756704126547 C 398.4130081276995 36.60756704126547 398.81463414386656 36.48031171998654 399.61788617620056 36.43301328198907 C 400.4211382085346 36.38571484399159 400.8227642247016 36.43301328198907 401.62601625703564 36.37107485127809 C 402.4292682893697 36.30913642056711 402.8308943055367 35.45359114502454 403.63414633787073 35.45359114502454 C 404.43739837020473 35.45359114502454 404.83902438637176 36.3641191986314 405.6422764187058 36.3641191986314 C 406.44552845431315 36.3641191986314 406.8471544721168 36.11205959557763 407.6504065077242 36.11205959557763 C 408.4536585400582 36.11205959557763 408.85528455622523 36.47914771280894 409.65853658855934 36.47914771280894 C 410.46178862089334 36.47914771280894 410.8634146370604 36.33170680364514 411.66666666939443 36.33170680364514 C 412.46991870172843 36.33170680364514 412.87154471789546 36.39255693496242 413.6747967502295 36.39255693496242 C 414.4780487825636 36.39255693496242 414.8796747987306 35.531570162451345 415.6829268310646 35.531570162451345 C 416.4861788633986 35.531570162451345 416.88780487956564 36.36071234835548 417.6910569118997 36.36071234835548 C 418.4943089442337 36.36071234835548 418.8959349604008 36.19529084051317 419.6991869927348 36.143099786980535 C 420.50243902506884 36.090908733447904 420.90406504123587 36.090908733447904 421.7073170735699 36.090908733447904 C 422.510569105904 36.090908733447904 422.912195122071 36.273743031589404 423.715447154405 36.273743031589404 C 424.5186991867391 36.273743031589404 424.92032520290604 34.80652617942282 425.7235772352401 34.80652617942282 C 426.52682926757416 34.80652617942282 426.9284552837411 34.80652617942282 427.7317073160752 35.101407997750414 C 428.5349593484092 35.39628981607801 428.9365853645762 36.4694665799415 429.7398373969103 36.4694665799415 C 430.5430894292443 36.4694665799415 430.94471544541136 36.437616315250764 431.74796747774536 36.30894715110734 C 432.5512195100794 36.1802779869639 432.95284552624645 35.826120759224345 433.7560975585805 35.826120759224345 C 434.55934959091456 35.826120759224345 434.9609756070816 36.52660702984722 435.7642276394156 36.52660702984722 C 436.5674796717496 36.52660702984722 436.9691056879166 36.000769153230635 437.7723577202507 35.895866555150995 C 438.57560975258474 35.790963957071355 438.97723576875177 35.790963957071355 439.78048780108577 35.790963957071355 C 440.58373983669316 35.790963957071355 440.98536585449676 36.64679313680359 441.78861789010415 36.64679313680359 C 442.5918699224382 36.64679313680359 442.99349593860524 36.61027359454023 443.7967479709393 36.53796319743365 C 444.6000000032733 36.465652800327064 445.0016260194404 36.53796319743365 445.8048780517744 36.28524115127067 C 446.60813008410844 36.03251910510769 447.00975610027547 35.50405038300022 447.81300813260947 35.21951214064928 C 448.6162601649436 34.934973898298296 449.0178861811105 34.862549939515866 449.82113821344456 34.862549939515866 C 450.6243902457786 34.862549939515866 451.02601626194553 35.85808837098012 451.82926829427964 36.196521092001696 C 452.63252032661364 36.53495381302323 453.0341463427807 36.55471354462363 453.83739837511473 36.55471354462363 C 454.64065040744873 36.55471354462363 455.0422764236158 36.55471354462363 455.8455284559498 36.50673373657097 C 456.6487804882839 36.45875392851831 457.0504065044509 35.745066113076206 457.85365853678496 35.745066113076206 C 458.656910569119 35.745066113076206 459.05853658528605 36.133636313991836 459.86178861762005 36.2950831631789 C 460.66504064995405 36.45653001236597 461.0666666661211 36.55230035901152 461.86991869845514 36.55230035901152 C 462.6731707307892 36.55230035901152 463.0747967469562 34.66499994087695 463.8780487792902 34.66499994087695 C 464.6813008116243 34.66499994087695 465.0829268277913 34.799296086059464 465.8861788601253 35.15610687162505 C 466.6894308924593 35.51291765719064 467.09105690862634 36.4490538687049 467.8943089409604 36.4490538687049 C 468.69756097329446 36.4490538687049 469.0991869894615 36.36837776147631 469.90243902179554 36.36837776147631 C 470.7056910541296 36.36837776147631 471.10731707029663 36.43679867118454 471.91056910263063 36.46249200034884 C 472.71382113496463 36.48818532951313 473.11544715113166 36.496844407297786 473.9186991834657 36.496844407297786 C 474.7219512157997 36.496844407297786 475.12357723196675 36.496844407297786 475.9268292643008 35.68246523925602 C 476.73008129990814 34.86808607121425 477.1317073177118 30.408746190003015 477.9349593533192 27.15601802854063 C 478.73821138565324 23.903289880333418 479.1398374018203 19.418824465082036 479.94308943415433 19.418824465082036 C 480.74634146648833 19.418824465082036 481.1479674826554 26.97275787411464 481.9512195149894 27.178541094253717 C 482.7544715473235 27.384324314392792 483.1560975634905 27.384324314392792 483.9593495958245 27.384324314392792 C 484.7626016281585 27.384324314392792 485.16422764432554 23.25011150455342 485.9674796766596 23.25011150455342 C 486.77073170899365 23.25011150455342 487.1723577251607 31.856903600942793 487.9756097574947 31.856903600942793 C 488.77886178982874 31.856903600942793 489.18048780599577 29.915112505339227 489.98373983832977 28.208640129072684 C 490.7869918706639 26.5021677528059 491.1886178868309 27.230107558569088 491.9918699191649 23.32454171960947 C 492.7951219514989 19.418975880649853 494 8.680810934274596 494 8.680810934274596 L 494 40 L 0 40" fill="rgb(69,114,167)"></path><path  stroke-width="1" stroke="#4572A7" d="M 0 8.128144111735065 C 0 8.128144111735065 1.2048780485010582 29.669753041161567 2.008130080835097 29.669753041161567 C 2.8113821131691354 29.669753041161567 3.213008129336155 28.22478481399139 4.016260161670194 22.957500919743108 C 4.819512194004233 17.69021702549482 5.221138210171252 3.33333356992015 6.02439024250529 3.33333356992015 C 6.827642274839329 3.33333356992015 7.229268291006349 11.434577475780682 8.032520323340387 17.864590978784435 C 8.835772355674425 24.294604481788188 9.237398371841445 35.36217399595378 10.040650404175484 35.48340108493891 C 10.843902436509522 35.60462817392404 11.245528452676542 35.60462817392404 12.04878048501058 35.60462817392404 C 12.852032517344616 35.60462817392404 13.253658533511636 20.632609510611488 14.056910565845676 20.632609510611488 C 14.860162598179716 20.632609510611488 15.261788614346736 24.82237291302661 16.065040646680774 27.83194658675786 C 16.868292682288132 30.84152027275337 17.269918700091814 35.68047790992839 18.07317073569917 35.68047790992839 C 18.87642276803321 35.68047790992839 19.27804878420023 35.59393444944682 20.081300816534267 35.59393444944682 C 20.884552848868303 35.59393444944682 21.286178865035325 35.8112631066321 22.089430897369365 35.8112631066321 C 22.892682929703405 35.8112631066321 23.29430894587042 35.8112631066321 24.09756097820446 35.72495623297524 C 24.9008130105385 35.63864935931838 25.30243902670552 25.69003142786257 26.105691059039557 25.69003142786257 C 26.908943091373594 25.69003142786257 27.310569107540612 25.967055672660507 28.113821139874652 27.521544672728805 C 28.91707317220869 29.076033672797095 29.31869918837571 33.46247642820404 30.12195122070975 33.46247642820404 C 30.925203253043787 33.46247642820404 31.326829269210812 33.46247642820404 32.13008130154485 33.41085318305073 C 32.933333333878885 33.359229937897425 33.33495935004591 33.41085318305073 34.13821138237994 32.892538767460145 C 34.94146341471398 32.37422435186956 35.343089430881 28.74670481279065 36.14634146321504 26.6116317448662 C 36.94959349554908 24.476558676941732 37.3512195117161 24.15034329954859 38.15447154405014 22.217173427837842 C 38.957723576384176 20.284003556127093 39.3593495925512 18.482215079918333 40.162601624885234 16.945782386312462 C 40.96585365721927 15.409349692706591 41.367479673386285 14.53500995980848 42.17073170572033 14.53500995980848 C 42.97398373805437 14.53500995980848 43.37560975422139 23.005338775700938 44.17886178655543 23.005338775700938 C 44.98211381888947 23.005338775700938 45.38373983505649 22.715491525003323 46.186991867390525 22.23065887684673 C 46.99024389972456 21.745826228690134 47.39186991589158 20.581175534917957 48.19512194822562 20.581175534917957 C 48.998373980559656 20.581175534917957 49.39999999672668 22.798287450181373 50.203252029060714 23.650558364069862 C 51.00650406139475 24.502829277958348 51.40813007756177 24.53563913943544 52.211382109895816 24.842530104360385 C 53.014634145503166 25.149421070535933 53.41626016330686 25.1850131918211 54.21951219891421 25.1850131918211 C 55.022764231248246 25.1850131918211 55.42439024741526 16.531802760422195 56.227642279749304 16.531802760422195 C 57.03089431208334 16.531802760422195 57.43252032825037 22.975576153151504 58.235772360584406 22.975576153151504 C 59.03902439291844 22.975576153151504 59.44065040908547 12.574367626011565 60.2439024414195 12.574367626011565 C 61.04715447375354 12.574367626011565 61.44878048992056 12.574367626011565 62.252032522254595 13.342801632693241 C 63.05528455458864 14.111235639374918 63.45691057075565 19.10544155706155 64.2601626030897 20.331623752206188 C 65.06341463542374 21.557805947350825 65.46504065159074 21.557805947350825 66.26829268392478 21.557805947350825 C 67.07154471625883 21.557805947350825 67.47317073242584 21.43028564882822 68.27642276475989 21.43028564882822 C 69.07967479709393 21.43028564882822 69.48130081326094 29.402741150785662 70.28455284559499 29.402741150785662 C 71.08780487792902 29.402741150785662 71.48943089409605 28.494153109141475 72.29268292643007 27.262955273312834 C 73.0959349587641 26.03175743748419 73.49756097493113 23.246751971642436 74.30081300726518 23.246751971642436 C 75.10406503959922 23.246751971642436 75.50569105576623 30.208319288947948 76.30894308810028 30.208319288947948 C 77.11219512043431 30.208319288947948 77.51382113660134 21.024444609708222 78.31707316893537 21.024444609708222 C 79.12032520126941 21.024444609708222 79.52195121743642 23.363105372038387 80.32520324977047 23.363105372038387 C 81.12845528210451 23.363105372038387 81.53008129827154 21.51361152849364 82.33333333060557 21.51361152849364 C 83.1365853629396 21.51361152849364 83.53821137910663 23.859067064429695 84.34146341144066 25.243071598606715 C 85.1447154437747 26.627076132783756 85.54634145994171 28.4336341993788 86.34959349227576 28.4336341993788 C 87.15284552788312 28.4336341993788 87.55447154568678 26.122322873985958 88.35772358129415 26.122322873985958 C 89.1609756136282 26.122322873985958 89.56260162979521 31.222718422078678 90.36585366212925 33.10806936477758 C 91.1691056944633 34.99342030747647 91.5707317106303 35.549077587480426 92.37398374296434 35.549077587480426 C 93.17723577529839 35.549077587480426 93.5788617914654 34.76228444320069 94.38211382379944 34.76228444320069 C 95.18536585613349 34.76228444320069 95.5869918723005 35.47710787540144 96.39024390463454 35.47710787540144 C 97.19349593696859 35.47710787540144 97.59512195313559 35.47710787540144 98.39837398546963 35.46016825875168 C 99.20162601780368 35.44322864210192 99.60325203397069 34.868985101148176 100.40650406630473 34.868985101148176 C 101.20975609863879 34.868985101148176 101.61138211480579 36.3821944320398 102.41463414713984 36.3821944320398 C 103.21788617947387 36.3821944320398 103.6195121956409 36.20111087640121 104.42276422797492 36.20111087640121 C 105.22601626030897 36.20111087640121 105.627642276476 36.26006831312075 106.43089430881002 36.26006831312075 C 107.23414634114405 36.26006831312075 107.63577235731108 35.55073369525345 108.43902438964513 35.55073369525345 C 109.24227642197916 35.55073369525345 109.64390243814618 36.10978836206034 110.44715447048021 36.10978836206034 C 111.25040650281426 36.10978836206034 111.65203251898126 33.57258393642745 112.45528455131532 33.57258393642745 C 113.25853658364936 33.57258393642745 113.66016259981639 35.79020687923226 114.46341463215042 35.96476063850866 C 115.26666666448446 36.13931439778506 115.66829268065146 36.08223072871727 116.4715447129855 36.13931439778506 C 117.27479674531955 36.19639806685284 117.67642276148656 36.25017898384757 118.4796747938206 36.25017898384757 C 119.28292682615465 36.25017898384757 119.68455284232166 35.85297809556624 120.4878048746557 35.81514313055746 C 121.29105690698972 35.777308165548675 121.69268292315675 35.777308165548675 122.4959349554908 35.777308165548675 C 123.29918699109817 35.777308165548675 123.70081300890183 36.166096026343055 124.50406504450919 36.26243418136792 C 125.30731707684325 36.35877233639279 125.70894309301025 36.35877233639279 126.51219512534429 36.35877233639279 C 127.31544715767832 36.35877233639279 127.71707317384535 35.40892355251792 128.5203252061794 35.40892355251792 C 129.32357723851342 35.40892355251792 129.72520325468045 35.81977076884893 130.52845528701448 36.019696099208005 C 131.3317073193485 36.219621429567084 131.73333333551554 36.40855020431331 132.53658536784957 36.40855020431331 C 133.33983740018363 36.40855020431331 133.74146341635065 36.24970581019814 134.54471544868468 36.24970581019814 C 135.3479674810187 36.24970581019814 135.74959349718574 36.28322543152408 136.55284552951977 36.3580152585537 C 137.3560975618538 36.43280508558332 137.75772357802083 36.623654945346246 138.56097561035486 36.623654945346246 C 139.36422764268892 36.623654945346246 139.76585365885595 36.58202512766899 140.56910569118998 36.422130288052074 C 141.372357723524 36.262235448435156 141.77398373969103 35.824180747261664 142.57723577202506 35.824180747261664 C 143.38048780435912 35.824180747261664 143.78211382052612 36.1700706849983 144.58536585286015 36.1700706849983 C 145.3886178851942 36.1700706849983 145.7902439013612 35.54477170727058 146.59349593369527 35.53294236603471 C 147.3967479660293 35.521113024798844 147.79837398219632 35.53294236603471 148.60162601453035 35.521113024798844 C 149.4048780468644 35.50928368356298 149.80650406303138 35.434522246952326 150.60975609536544 35.434522246952326 C 151.41300812769947 35.434522246952326 151.8146341438665 36.300146121227854 152.61788617620056 36.300146121227854 C 153.42113820853461 36.300146121227854 153.82276422470161 34.897848693763684 154.62601625703564 34.897848693763684 C 155.42926828936967 34.897848693763684 155.83089430553667 35.23549594652718 156.63414633787073 35.36558084622972 C 157.4373983702048 35.49566574593226 157.83902438637182 35.36558084622972 158.64227641870585 35.54827319227638 C 159.4455284543132 35.73096553832305 159.84715447211687 36.38403980927259 160.65040650772423 36.38403980927259 C 161.45365854005826 36.38403980927259 161.85528455622529 35.657812892120475 162.65853658855934 35.514015420057326 C 163.46178862089337 35.37021794799418 163.8634146370604 35.37021794799418 164.66666666939443 35.37021794799418 C 165.46991870172846 35.37021794799418 165.8715447178955 35.92014036336698 166.67479675022952 35.92014036336698 C 167.47804878256358 35.92014036336698 167.8796747987306 35.17394551820873 168.68292683106463 35.17394551820873 C 169.48617886339866 35.17394551820873 169.8878048795657 36.36960801296485 170.69105691189972 36.36960801296485 C 171.49430894423375 36.36960801296485 171.89593496040078 35.456572139015975 172.6991869927348 35.456572139015975 C 173.50243902506887 35.456572139015975 173.9040650412359 35.456572139015975 174.70731707356993 35.577089467526946 C 175.51056910590395 35.69760679603792 175.91219512207098 36.30189686373076 176.715447154405 36.30189686373076 C 177.51869918673907 36.30189686373076 177.92032520290607 35.50062460577833 178.7235772352401 35.39624249871307 C 179.52682926757413 35.291860391647816 179.92845528374113 35.291860391647816 180.7317073160752 35.291860391647816 C 181.53495934840922 35.291860391647816 181.93658536457627 35.914414962208824 182.7398373969103 36.112816673416724 C 183.54308942924436 36.311218384624624 183.94471544541133 36.311218384624624 184.7479674777454 36.311218384624624 C 185.55121951007942 36.311218384624624 185.95284552624645 36.24251357072673 186.75609755858048 36.24251357072673 C 187.55934959091454 36.24251357072673 187.96097560708154 36.44886459924513 188.7642276394156 36.44886459924513 C 189.56747967174962 36.44886459924513 189.96910568791662 36.44088689151566 190.77235772025068 36.40793507856904 C 191.5756097525847 36.37498326562242 191.97723576875174 36.28410553451202 192.78048780108577 36.28410553451202 C 193.58373983669313 36.28410553451202 193.98536585449682 36.31930965402995 194.78861789010418 36.31930965402995 C 195.5918699224382 36.31930965402995 195.99349593860524 35.65658264063195 196.79674797093926 35.65658264063195 C 197.60000000327332 35.65658264063195 198.00162601944035 36.01728291359589 198.80487805177438 36.01728291359589 C 199.6081300841084 36.01728291359589 200.00975610027544 35.93618095008281 200.81300813260947 35.93523460278394 C 201.61626016494353 35.93428825548508 202.01788618111053 35.93428825548508 202.82113821344456 35.93428825548508 C 203.6243902457786 35.93428825548508 204.0260162619456 36.21682024156243 204.82926829427967 36.21682024156243 C 205.6325203266137 36.21682024156243 206.03414634278073 35.551254186267826 206.83739837511476 35.551254186267826 C 207.64065040744882 35.551254186267826 208.0422764236158 36.40159455166662 208.84552845594985 36.40159455166662 C 209.64878048828388 36.40159455166662 210.05040650445093 36.2812759560884 210.85365853678496 36.16098575092916 C 211.65691056911902 36.04069554576991 212.05853658528605 36.16098575092916 212.86178861762005 35.80014352587039 C 213.66504064995405 35.43930130081162 214.06666666612108 33.17227902900584 214.86991869845514 33.17227902900584 C 215.67317073078917 33.17227902900584 216.07479674695622 35.38748878619854 216.87804877929025 35.451319911507255 C 217.6813008116243 35.51515103681597 218.08292682779128 35.51515103681597 218.88617886012534 35.51515103681597 C 219.68943089245937 35.51515103681597 220.0910569086264 35.23498491898579 220.89430894096043 35.23498491898579 C 221.69756097329446 35.23498491898579 222.0991869894615 36.25008434911768 222.90243902179554 36.25008434911768 C 223.7056910541296 36.25008434911768 224.10731707029657 36.144330038469064 224.91056910263063 36.144330038469064 C 225.71382113496466 36.144330038469064 226.1154471511317 36.36135586451871 226.91869918346572 36.36135586451871 C 227.72195121579975 36.36135586451871 228.12357723196678 35.9702494528421 228.92682926430084 35.9702494528421 C 229.73008129990816 35.9702494528421 230.13170731771189 36.03391969900449 230.93495935331921 36.08570382330412 C 231.73821138565327 36.13748794739273 232.13983740182024 36.229170073812675 232.9430894341543 36.229170073812675 C 233.74634146648833 36.229170073812675 234.1479674826554 36.229170073812675 234.95121951498942 36.205558708705894 C 235.75447154732348 36.18194734359911 236.1560975634905 35.6970389876586 236.9593495958245 35.6970389876586 C 237.7626016281585 35.6970389876586 238.16422764432554 36.0301627003335 238.9674796766596 36.17078044547245 C 239.77073170899362 36.311398190611406 240.17235772516068 36.40012771335337 240.9756097574947 36.40012771335337 C 241.77886178982877 36.40012771335337 242.18048780599574 35.99097445868733 242.9837398383298 35.99097445868733 C 243.78699187066383 35.99097445868733 244.18861788683085 36.55835698172428 244.99186991916488 36.55835698172428 C 245.7951219514989 36.55835698172428 246.19674796766594 36.44105723402946 247 36.40012771335337 C 247.80325203233406 36.35919819267728 248.20487804850103 36.38105881528116 249.0081300808351 36.353709378343844 C 249.81138211316912 36.32635994140653 250.21300812933615 36.3138303031695 251.01626016167017 36.263380528666794 C 251.8195121940042 36.212930754164084 252.22113821017123 36.101460505830296 253.0243902425053 36.101460505830296 C 253.82764227483932 36.101460505830296 254.22926829100635 36.45246071898083 255.03252032334038 36.45246071898083 C 255.83577235567446 36.45246071898083 256.23739837184144 36.42400405570384 257.0406504041755 36.38228906676969 C 257.8439024365095 36.34057407783554 258.2455284526765 36.34746348617131 259.0487804850106 36.24388577431009 C 259.8520325173446 36.140308062448874 260.2536585335116 35.8644005074636 261.05691056584567 35.8644005074636 C 261.8601625981797 35.8644005074636 262.26178861434676 36.134128414789686 263.06504064668076 36.23347595402253 C 263.86829268228814 36.332823493660236 264.2699187000918 36.274500109251974 265.07317073569914 36.361138204639964 C 265.8764227680332 36.4477762996749 266.2780487842002 36.66666643007984 267.0813008165343 36.66666643007984 C 267.88455284886834 36.66666643007984 268.28617886503537 36.51020683115782 269.08943089736937 36.42165711440264 C 269.8926829297034 36.33310739764746 270.2943089458704 36.223917846303955 271.09756097820446 36.223917846303955 C 271.9008130105385 36.223917846303955 272.3024390267055 36.44739776093188 273.10569105903954 36.44739776093188 C 273.90894309137354 36.44739776093188 274.3105691075406 36.369655330329785 275.11382113987463 36.369655330329785 C 275.9170731722087 36.369655330329785 276.3186991883757 36.46717641947824 277.1219512207097 36.46717641947824 C 277.9252032530438 36.46717641947824 278.3268292692108 36.46717641947824 279.13008130154486 36.362226504033664 C 279.9333333338789 36.257276588589086 280.33495935004595 35.758068924962664 281.13821138237995 35.44086277385475 C 281.94146341471395 35.123656622746836 282.343089430881 34.77619574849407 283.14634146321504 34.77619574849407 C 283.94959349554904 34.77619574849407 284.35121951171607 35.38389266646283 285.1544715440501 35.38389266646283 C 285.9577235763842 35.38389266646283 286.3593495925512 33.644790235331165 287.1626016248852 33.644790235331165 C 287.96585365721927 33.644790235331165 288.36747967338624 34.060056893547895 289.1707317057203 34.585033594122514 C 289.97398373805436 35.11001029469713 290.3756097542214 36.26967373820427 291.17886178655544 36.26967373820427 C 291.9821138188895 36.26967373820427 292.3837398350565 34.45046300822334 293.18699186739053 34.45046300822334 C 293.99024389972453 34.45046300822334 294.39186991589156 34.45046300822334 295.1951219482256 34.45898013391316 C 295.9983739805597 34.46749725960298 296.3999999967267 35.46773903714263 297.2032520290607 35.46773903714263 C 298.00650406139476 35.46773903714263 298.4081300775618 34.71501439562218 299.2113821098958 34.71501439562218 C 300.0146341455032 34.71501439562218 300.41626016330684 36.133352409802185 301.2195121989142 36.133352409802185 C 302.02276423124823 36.133352409802185 302.42439024741526 36.045484063102194 303.2276422797493 36.045484063102194 C 304.0308943120834 36.045484063102194 304.4325203282504 36.17977074481171 305.2357723605844 36.17977074481171 C 306.0390243929184 36.17977074481171 306.44065040908544 35.18941829654524 307.2439024414195 35.18941829654524 C 308.0471544737535 35.18941829654524 308.4487804899205 35.18941829654524 309.2520325222546 35.402015217236176 C 310.05528455458864 35.61461213792711 310.45691057075567 36.37599585723221 311.26016260308967 36.37599585723221 C 312.0634146354237 36.37599585723221 312.4650406515907 36.290200011116745 313.26829268392476 36.210905570944504 C 314.0715447162588 36.131611130772264 314.47317073242584 36.1413679714236 315.2764227647599 35.979523656371015 C 316.07967479709396 35.81767934131843 316.48130081326093 35.40168399568157 317.284552845595 35.40168399568157 C 318.087804877929 35.40168399568157 318.489430894096 36.19604791835226 319.2926829264301 36.19604791835226 C 320.09593495876413 36.19604791835226 320.49756097493116 36.17352485263917 321.30081300726516 35.98964957246892 C 322.1040650395992 35.80577429229866 322.50569105576625 35.276671517500965 323.30894308810025 35.276671517500965 C 324.11219512043425 35.276671517500965 324.5138211366013 36.28514651654078 325.31707316893534 36.28514651654078 C 326.1203252012694 36.28514651654078 326.5219512174364 35.30165508619111 327.3252032497705 35.30165508619111 C 328.1284552821045 35.30165508619111 328.5300812982715 35.967306312742615 329.33333333060557 36.14269285764202 C 330.1365853629396 36.31807940254142 330.53821137910666 36.31807940254142 331.34146341144066 36.31807940254142 C 332.1447154437747 36.31807940254142 332.5463414599417 35.005826920564644 333.34959349227574 35.005826920564644 C 334.1528455278831 35.005826920564644 334.5544715456868 36.46443201231152 335.3577235812941 36.46443201231152 C 336.16097561362824 36.46443201231152 336.56260162979527 35.57079625798947 337.36585366212927 35.57079625798947 C 338.1691056944633 35.57079625798947 338.5707317106303 36.20125282849604 339.37398374296436 36.20125282849604 C 340.1772357752984 36.20125282849604 340.5788617914654 35.15954211231997 341.38211382379944 34.46394845723222 C 342.18536585613344 33.76835480214452 342.5869918723005 34.46394845723222 343.39024390463453 32.72328455305742 C 344.19349593696853 30.982620648882616 344.5951219531356 21.454559457044212 345.3983739854696 21.454559457044212 C 346.2016260178037 21.454559457044212 346.6032520339707 32.818155869769036 347.4065040663047 32.818155869769036 C 348.20975609863876 32.818155869769036 348.6113821148058 32.43781889035356 349.41463414713985 32.43781889035356 C 350.21788617947385 32.43781889035356 350.6195121956409 33.39741505140679 351.42276422797494 33.39741505140679 C 352.22601626030894 33.39741505140679 352.627642276476 31.750770751374628 353.43089430881 31.750770751374628 C 354.2341463411441 31.750770751374628 354.6357723573111 31.85698877219972 355.4390243896451 32.75508182229942 C 356.24227642197917 33.65317487239918 356.64390243814614 36.06772322462561 357.4471544704802 36.241236001873254 C 358.25040650281426 36.4147487791209 358.65203251898123 36.4147487791209 359.4552845513153 36.4147487791209 C 360.2585365836493 36.4147487791209 360.6601625998163 34.60949667179828 361.4634146321504 34.60949667179828 C 362.26666666448443 34.60949667179828 362.66829268065146 35.8571136332623 363.4715447129855 35.8571136332623 C 364.2747967453195 35.8571136332623 364.6764227614866 35.8571136332623 365.4796747938206 35.74497147834632 C 366.28292682615466 35.63282932343034 366.6845528423217 35.19041196120905 367.4878048746557 35.19041196120905 C 368.2910569069897 35.19041196120905 368.6926829231567 35.91545594423758 369.4959349554908 35.91545594423758 C 370.2991869910981 35.91545594423758 370.7008130089018 35.90764857902191 371.50406504450916 35.90764857902191 C 372.3073170768432 35.90764857902191 372.70894309301025 35.90764857902191 373.5121951253443 35.95515521342514 C 374.3154471576783 36.002661847828364 374.71707317384534 36.22543200198214 375.5203252061794 36.22543200198214 C 376.3235772385134 36.22543200198214 376.7252032546805 36.09147654182723 377.5284552870145 36.09147654182723 C 378.33170731934854 36.09147654182723 378.73333333551557 36.2040445530277 379.53658536784957 36.2040445530277 C 380.3398374001836 36.2040445530277 380.7414634163506 36.1007034279912 381.54471544868466 36.1007034279912 C 382.3479674810187 36.1007034279912 382.7495934971857 36.17683706818521 383.55284552951974 36.199738672817844 C 384.35609756185374 36.22264027745048 384.7577235780208 36.199738672817844 385.5609756103549 36.22264027745048 C 386.3642276426889 36.24554188208312 386.7658536588559 36.48009406010781 387.56910569119 36.5101405868469 C 388.372357723524 36.54018711358599 388.77398373969106 36.51622559997863 389.57723577202506 36.54018711358599 C 390.3804878043591 36.56414862719336 390.78211382052615 36.62994815488372 391.58536585286015 36.62994815488372 C 392.38861788519415 36.62994815488372 392.7902439013612 36.585507685728835 393.59349593369524 36.557079412870806 C 394.39674796602924 36.528651140012784 394.7983739821963 36.48780679059359 395.6016260145303 36.48780679059359 C 396.4048780468644 36.48780679059359 396.8065040630314 36.60756704126547 397.60975609536547 36.60756704126547 C 398.4130081276995 36.60756704126547 398.81463414386656 36.48031171998654 399.61788617620056 36.43301328198907 C 400.4211382085346 36.38571484399159 400.8227642247016 36.43301328198907 401.62601625703564 36.37107485127809 C 402.4292682893697 36.30913642056711 402.8308943055367 35.45359114502454 403.63414633787073 35.45359114502454 C 404.43739837020473 35.45359114502454 404.83902438637176 36.3641191986314 405.6422764187058 36.3641191986314 C 406.44552845431315 36.3641191986314 406.8471544721168 36.11205959557763 407.6504065077242 36.11205959557763 C 408.4536585400582 36.11205959557763 408.85528455622523 36.47914771280894 409.65853658855934 36.47914771280894 C 410.46178862089334 36.47914771280894 410.8634146370604 36.33170680364514 411.66666666939443 36.33170680364514 C 412.46991870172843 36.33170680364514 412.87154471789546 36.39255693496242 413.6747967502295 36.39255693496242 C 414.4780487825636 36.39255693496242 414.8796747987306 35.531570162451345 415.6829268310646 35.531570162451345 C 416.4861788633986 35.531570162451345 416.88780487956564 36.36071234835548 417.6910569118997 36.36071234835548 C 418.4943089442337 36.36071234835548 418.8959349604008 36.19529084051317 419.6991869927348 36.143099786980535 C 420.50243902506884 36.090908733447904 420.90406504123587 36.090908733447904 421.7073170735699 36.090908733447904 C 422.510569105904 36.090908733447904 422.912195122071 36.273743031589404 423.715447154405 36.273743031589404 C 424.5186991867391 36.273743031589404 424.92032520290604 34.80652617942282 425.7235772352401 34.80652617942282 C 426.52682926757416 34.80652617942282 426.9284552837411 34.80652617942282 427.7317073160752 35.101407997750414 C 428.5349593484092 35.39628981607801 428.9365853645762 36.4694665799415 429.7398373969103 36.4694665799415 C 430.5430894292443 36.4694665799415 430.94471544541136 36.437616315250764 431.74796747774536 36.30894715110734 C 432.5512195100794 36.1802779869639 432.95284552624645 35.826120759224345 433.7560975585805 35.826120759224345 C 434.55934959091456 35.826120759224345 434.9609756070816 36.52660702984722 435.7642276394156 36.52660702984722 C 436.5674796717496 36.52660702984722 436.9691056879166 36.000769153230635 437.7723577202507 35.895866555150995 C 438.57560975258474 35.790963957071355 438.97723576875177 35.790963957071355 439.78048780108577 35.790963957071355 C 440.58373983669316 35.790963957071355 440.98536585449676 36.64679313680359 441.78861789010415 36.64679313680359 C 442.5918699224382 36.64679313680359 442.99349593860524 36.61027359454023 443.7967479709393 36.53796319743365 C 444.6000000032733 36.465652800327064 445.0016260194404 36.53796319743365 445.8048780517744 36.28524115127067 C 446.60813008410844 36.03251910510769 447.00975610027547 35.50405038300022 447.81300813260947 35.21951214064928 C 448.6162601649436 34.934973898298296 449.0178861811105 34.862549939515866 449.82113821344456 34.862549939515866 C 450.6243902457786 34.862549939515866 451.02601626194553 35.85808837098012 451.82926829427964 36.196521092001696 C 452.63252032661364 36.53495381302323 453.0341463427807 36.55471354462363 453.83739837511473 36.55471354462363 C 454.64065040744873 36.55471354462363 455.0422764236158 36.55471354462363 455.8455284559498 36.50673373657097 C 456.6487804882839 36.45875392851831 457.0504065044509 35.745066113076206 457.85365853678496 35.745066113076206 C 458.656910569119 35.745066113076206 459.05853658528605 36.133636313991836 459.86178861762005 36.2950831631789 C 460.66504064995405 36.45653001236597 461.0666666661211 36.55230035901152 461.86991869845514 36.55230035901152 C 462.6731707307892 36.55230035901152 463.0747967469562 34.66499994087695 463.8780487792902 34.66499994087695 C 464.6813008116243 34.66499994087695 465.0829268277913 34.799296086059464 465.8861788601253 35.15610687162505 C 466.6894308924593 35.51291765719064 467.09105690862634 36.4490538687049 467.8943089409604 36.4490538687049 C 468.69756097329446 36.4490538687049 469.0991869894615 36.36837776147631 469.90243902179554 36.36837776147631 C 470.7056910541296 36.36837776147631 471.10731707029663 36.43679867118454 471.91056910263063 36.46249200034884 C 472.71382113496463 36.48818532951313 473.11544715113166 36.496844407297786 473.9186991834657 36.496844407297786 C 474.7219512157997 36.496844407297786 475.12357723196675 36.496844407297786 475.9268292643008 35.68246523925602 C 476.73008129990814 34.86808607121425 477.1317073177118 30.408746190003015 477.9349593533192 27.15601802854063 C 478.73821138565324 23.903289880333418 479.1398374018203 19.418824465082036 479.94308943415433 19.418824465082036 C 480.74634146648833 19.418824465082036 481.1479674826554 26.97275787411464 481.9512195149894 27.178541094253717 C 482.7544715473235 27.384324314392792 483.1560975634905 27.384324314392792 483.9593495958245 27.384324314392792 C 484.7626016281585 27.384324314392792 485.16422764432554 23.25011150455342 485.9674796766596 23.25011150455342 C 486.77073170899365 23.25011150455342 487.1723577251607 31.856903600942793 487.9756097574947 31.856903600942793 C 488.77886178982874 31.856903600942793 489.18048780599577 29.915112505339227 489.98373983832977 28.208640129072684 C 490.7869918706639 26.5021677528059 491.1886178868309 27.230107558569088 491.9918699191649 23.32454171960947 C 492.7951219514989 19.418975880649853 494 8.680810934274596 494 8.680810934274596" fill="none"></path></g><g transform="translate(48,296) scale(1 1)"  visibility="visible" class="highcharts-markers"></g></g><g  class="highcharts-navigator"><rect fill-opacity="0.75" height="40" width="483" y="296" x="48" fill="rgb(255,255,255)"></rect><rect fill-opacity="0.75" height="40" width="0" y="296" x="542" fill="rgb(255,255,255)"></rect><path d="M 34 296.5 L 531.5 296.5 531.5 336.5 M 541.5 336.5 L 541.5 296.5 556 296.5" stroke-width="1" stroke="#444" fill="none"></path></g><g transform="translate(542,308)"  style="cursor:e-resize;"><rect stroke-width="1" stroke="#666" height="15" width="8" y="0.5" x="-4.5" fill="#FFF" ry="3" rx="3"></rect><path stroke-width="1" stroke="#666" d="M -1.5 4 L -1.5 12 M 0.5 4 L 0.5 12" fill="#FFF"></path></g><text  class="highcharts-title" text-anchor="middle" style="font-family:'lucida grande', 'lucida sans unicode', verdana, arial, helvetica, sans-serif;font-size:16px;color:#274b6d;fill:#274b6d;width:526px;" y="25" x="295"><tspan x="295">Demo Device Example</tspan></text><text  class="highcharts-subtitle" text-anchor="middle" style="font-family:'lucida grande', 'lucida sans unicode', verdana, arial, helvetica, sans-serif;font-size:12px;color:#4d759e;fill:#4d759e;width:526px;" y="40" x="295"><tspan x="295">This is a subtitle</tspan></text><g transform="translate(531,308)"  style="cursor:e-resize;"><rect stroke-width="1" stroke="#666" height="15" width="8" y="0.5" x="-4.5" fill="#FFF" ry="3" rx="3"></rect><path stroke-width="1" stroke="#666" d="M -1.5 4 L -1.5 12 M 0.5 4 L 0.5 12" fill="#FFF"></path></g><g transform="translate(3,360)"  class="highcharts-legend"><rect visibility="visible" stroke-width="1" stroke="#909090" height="24" width="583" y="0.5" x="0.5" fill="none" ry="5" rx="5"></rect><g ><g><g transform="translate(8,3)"  class="highcharts-legend-item"><text  text-anchor="start" style="font-family:'lucida grande', 'lucida sans unicode', verdana, arial, helvetica, sans-serif;font-size:12px;cursor:pointer;color:#274b6d;fill:#274b6d;" y="15" x="21"><tspan x="21">InBits</tspan></text><rect  height="12" width="16" y="4" x="0" fill="#00ff00" ry="2" rx="2"></rect></g><g transform="translate(67,3)"  class="highcharts-legend-item"><path stroke-width="1" stroke="#0000ff" d="M 0 11 L 16 11" fill="none"></path><text  text-anchor="start" style="font-family:'lucida grande', 'lucida sans unicode', verdana, arial, helvetica, sans-serif;font-size:12px;cursor:pointer;color:#274b6d;fill:#274b6d;" y="15" x="21"><tspan x="21">OutBits</tspan></text></g><g transform="translate(135,3)"  class="highcharts-legend-item"><path stroke-width="1" stroke="#ff9933" d="M 0 11 L 16 11" fill="none"></path><text  text-anchor="start" style="font-family:'lucida grande', 'lucida sans unicode', verdana, arial, helvetica, sans-serif;font-size:12px;cursor:pointer;color:#274b6d;fill:#274b6d;" y="15" x="21"><tspan x="21">Unicast In</tspan></text></g><g transform="translate(218,3)"  class="highcharts-legend-item"><path stroke-width="1" stroke="#ffcc33" d="M 0 11 L 16 11" fill="none"></path><text  text-anchor="start" style="font-family:'lucida grande', 'lucida sans unicode', verdana, arial, helvetica, sans-serif;font-size:12px;cursor:pointer;color:#274b6d;fill:#274b6d;" y="15" x="21"><tspan x="21">Unicast Out</tspan></text></g><g transform="translate(311,3)"  class="highcharts-legend-item"><path stroke-width="1" stroke="#996600" d="M 0 11 L 16 11" fill="none"></path><text  text-anchor="start" style="font-family:'lucida grande', 'lucida sans unicode', verdana, arial, helvetica, sans-serif;font-size:12px;cursor:pointer;color:#274b6d;fill:#274b6d;" y="15" x="21"><tspan x="21">Broadcast In</tspan></text></g><g transform="translate(408,3)"  class="highcharts-legend-item"><path stroke-width="1" stroke="#990000" d="M 0 11 L 16 11" fill="none"></path><text  text-anchor="start" style="font-family:'lucida grande', 'lucida sans unicode', verdana, arial, helvetica, sans-serif;font-size:12px;cursor:pointer;color:#274b6d;fill:#274b6d;" y="15" x="21"><tspan x="21">Broadcast Out</tspan></text></g><g transform="translate(515,3)"  class="highcharts-legend-item"><path stroke-width="1" stroke="#ff0000" d="M 0 11 L 16 11" fill="none"></path><text  text-anchor="start" style="font-family:'lucida grande', 'lucida sans unicode', verdana, arial, helvetica, sans-serif;font-size:12px;cursor:pointer;color:#274b6d;fill:#274b6d;" y="15" x="21"><tspan x="21">% CPU</tspan></text></g></g></g></g><g  class="highcharts-axis-labels"><text opacity="1" text-anchor="middle" style="font-family:'lucida grande', 'lucida sans unicode', verdana, arial, helvetica, sans-serif;font-size:11px;color:#666;cursor:default;line-height:14px;fill:#666;" y="287" x="117.15044243652343"><tspan x="117.15044243652343">14:47</tspan></text><text opacity="1" text-anchor="middle" style="font-family:'lucida grande', 'lucida sans unicode', verdana, arial, helvetica, sans-serif;font-size:11px;color:#666;cursor:default;line-height:14px;fill:#666;" y="287" x="209.53982311035156"><tspan x="209.53982311035156">14:48</tspan></text><text opacity="1" text-anchor="middle" style="font-family:'lucida grande', 'lucida sans unicode', verdana, arial, helvetica, sans-serif;font-size:11px;color:#666;cursor:default;line-height:14px;fill:#666;" y="287" x="301.929203359375"><tspan x="301.929203359375">14:49</tspan></text><text opacity="1" text-anchor="middle" style="font-family:'lucida grande', 'lucida sans unicode', verdana, arial, helvetica, sans-serif;font-size:11px;color:#666;cursor:default;line-height:14px;fill:#666;" y="287" x="454.3716815136719"><tspan x="454.3716815136719">14:50</tspan></text><text opacity="1" text-anchor="middle" style="font-family:'lucida grande', 'lucida sans unicode', verdana, arial, helvetica, sans-serif;font-size:11px;color:#666;cursor:default;line-height:14px;fill:#666;" y="287" x="542.5"><tspan x="542.5">14:51</tspan></text></g><g  class="highcharts-axis-labels"><text opacity="1" text-anchor="start" style="font-family:'lucida grande', 'lucida sans unicode', verdana, arial, helvetica, sans-serif;font-size:11px;width:178px;color:#666;cursor:default;line-height:14px;fill:#666;" y="271" x="36"><tspan x="36">0k</tspan></text><text text-anchor="start" style="font-family:'lucida grande', 'lucida sans unicode', verdana, arial, helvetica, sans-serif;font-size:11px;width:178px;color:#666;cursor:default;line-height:14px;fill:#666;" y="-9999" x="0"><tspan x="0">1,000k</tspan></text><text opacity="1" text-anchor="start" style="font-family:'lucida grande', 'lucida sans unicode', verdana, arial, helvetica, sans-serif;font-size:11px;width:178px;color:#666;cursor:default;line-height:14px;fill:#666;" y="222.5" x="36"><tspan x="36">250k</tspan></text><text opacity="1" text-anchor="start" style="font-family:'lucida grande', 'lucida sans unicode', verdana, arial, helvetica, sans-serif;font-size:11px;width:178px;color:#666;cursor:default;line-height:14px;fill:#666;" y="174" x="36"><tspan x="36">500k</tspan></text><text opacity="1" text-anchor="start" style="font-family:'lucida grande', 'lucida sans unicode', verdana, arial, helvetica, sans-serif;font-size:11px;width:178px;color:#666;cursor:default;line-height:14px;fill:#666;" y="125.5" x="36"><tspan x="36">750k</tspan></text></g><g  class="highcharts-axis-labels"><text opacity="1" text-anchor="end" style="font-family:'lucida grande', 'lucida sans unicode', verdana, arial, helvetica, sans-serif;font-size:11px;width:178px;color:#666;cursor:default;line-height:14px;fill:#666;" y="271" x="554"><tspan x="554">0</tspan></text><text opacity="1" text-anchor="end" style="font-family:'lucida grande', 'lucida sans unicode', verdana, arial, helvetica, sans-serif;font-size:11px;width:178px;color:#666;cursor:default;line-height:14px;fill:#666;" y="222.5" x="554"><tspan x="554">250</tspan></text><text opacity="1" text-anchor="end" style="font-family:'lucida grande', 'lucida sans unicode', verdana, arial, helvetica, sans-serif;font-size:11px;width:178px;color:#666;cursor:default;line-height:14px;fill:#666;" y="174" x="554"><tspan x="554">500</tspan></text><text opacity="1" text-anchor="end" style="font-family:'lucida grande', 'lucida sans unicode', verdana, arial, helvetica, sans-serif;font-size:11px;width:178px;color:#666;cursor:default;line-height:14px;fill:#666;" y="125.5" x="554"><tspan x="554">750</tspan></text><text text-anchor="end" style="font-family:'lucida grande', 'lucida sans unicode', verdana, arial, helvetica, sans-serif;font-size:11px;width:178px;color:#666;cursor:default;line-height:14px;fill:#666;" y="-9999" x="0"><tspan x="0">1,000</tspan></text></g><g  class="highcharts-axis-labels"></g><g  class="highcharts-axis-labels"><text opacity="1" text-anchor="start" style="font-family:'lucida grande', 'lucida sans unicode', verdana, arial, helvetica, sans-serif;font-size:11px;color:#666;cursor:default;line-height:14px;fill:#666;" y="332" x="200.66730857960314"><tspan x="200.66730857960314">12:00</tspan></text><text opacity="1" text-anchor="start" style="font-family:'lucida grande', 'lucida sans unicode', verdana, arial, helvetica, sans-serif;font-size:11px;color:#666;cursor:default;line-height:14px;fill:#666;" y="332" x="441.64291833709785"><tspan x="441.64291833709785">14:00</tspan></text></g><g  class="highcharts-axis-labels"></g><g transform="translate(70,54)" style="cursor:default;text-align:center;"  class="highcharts-button"><rect stroke-width="1" stroke="#68A" height="18" width="30" y="0.5" x="0.5" fill="url(#highcharts-20)" ry="0" rx="0"></rect><text  style="font-family:'lucida grande', 'lucida sans unicode', verdana, arial, helvetica, sans-serif;font-size:12px;color:black;fill:black;" y="14" x="6.5"><tspan x="6.5">5m</tspan></text></g><g transform="translate(100,54)" style="cursor:default;text-align:center;"  class="highcharts-button"><rect stroke-width="1" stroke="#68A" height="18" width="30" y="0.5" x="0.5" fill="url(#highcharts-19)" ry="0" rx="0"></rect><text  style="font-family:'lucida grande', 'lucida sans unicode', verdana, arial, helvetica, sans-serif;font-size:12px;color:#ccc;fill:#ccc;" y="14" x="8"><tspan x="8">1d</tspan></text></g><g transform="translate(130,54)" style="cursor:default;text-align:center;"  class="highcharts-button"><rect stroke-width="1" stroke="#68A" height="18" width="30" y="0.5" x="0.5" fill="url(#highcharts-19)" ry="0" rx="0"></rect><text  style="font-family:'lucida grande', 'lucida sans unicode', verdana, arial, helvetica, sans-serif;font-size:12px;color:#ccc;fill:#ccc;" y="14" x="6.5"><tspan x="6.5">1m</tspan></text></g><g transform="translate(160,54)" style="cursor:default;text-align:center;"  class="highcharts-button"><rect stroke-width="1" stroke="#68A" height="18" width="30" y="0.5" x="0.5" fill="url(#highcharts-19)" ry="0" rx="0"></rect><text  style="font-family:'lucida grande', 'lucida sans unicode', verdana, arial, helvetica, sans-serif;font-size:12px;color:#ccc;fill:#ccc;" y="14" x="8.5"><tspan x="8.5">1y</tspan></text></g><g transform="translate(190,54)" style="cursor:default;text-align:center;"  class="highcharts-button"><rect stroke-width="1" stroke="#68A" height="18" width="30" y="0.5" x="0.5" fill="url(#highcharts-19)" ry="0" rx="0"></rect><text  style="font-family:'lucida grande', 'lucida sans unicode', verdana, arial, helvetica, sans-serif;font-size:12px;color:black;fill:black;" y="14" x="8.5"><tspan x="8.5">all</tspan></text></g><g transform="translate(0,0)" visibility="hidden" style="cursor:default;padding:0;white-space:nowrap;"  class="highcharts-tooltip"><rect transform="translate(1, 1)" stroke-width="5" stroke-opacity="0.049999999999999996" stroke="black"  fill-opacity="0.85" height="16" width="16" y="0.5" x="0.5" fill="none" ry="3" rx="3"></rect><rect transform="translate(1, 1)" stroke-width="3" stroke-opacity="0.09999999999999999" stroke="black"  fill-opacity="0.85" height="16" width="16" y="0.5" x="0.5" fill="none" ry="3" rx="3"></rect><rect transform="translate(1, 1)" stroke-width="1" stroke-opacity="0.15" stroke="black"  fill-opacity="0.85" height="16" width="16" y="0.5" x="0.5" fill="none" ry="3" rx="3"></rect><rect fill-opacity="0.85" height="16" width="16" y="0.5" x="0.5" fill="rgb(255,255,255)" ry="3" rx="3"></rect><text  style="font-family:'lucida grande', 'lucida sans unicode', verdana, arial, helvetica, sans-serif;font-size:12px;color:#333333;fill:#333333;" y="21" x="8"></text></g><text  text-anchor="end" style="font-family:'lucida grande', 'lucida sans unicode', verdana, arial, helvetica, sans-serif;font-size:9px;cursor:pointer;color:#909090;fill:#909090;" y="395" x="590"><tspan x="590">Highcharts.com</tspan></text></svg>